<svg xmlns="http://www.w3.org/2000/svg" viewBox="0 0 2700 2000" style="enable-background:new 0 0 2700 2000" xml:space="preserve">
    <path style="fill:#3f9896" d="M1519.808 499.561s23.518-95.524 146.62-111.083c0 0-42.157 140.91-146.62 111.083z"/>
    <path style="fill:#7fc6a6" d="M1495.31 538.82s-101.413-135.707 12.434-316.532c0 0 141.438 210.117-12.434 316.532z"/>
    <path style="fill:#feefdc" d="M711.199 1871.868c-157.728-3.859-302.563-84.186-381.951-213.016-63.537-103.107-113.056-251.684-103.213-461.172 24.93-530.546 507.808-895.986 809.58-913.52 368.136-21.39 284.754 192.992 689.426 228.141 189.184 16.432 428.622 103.982 580.197 375.644 93.099 166.857 167.955 389.998-13.028 741.602-76.342 148.313-235.746 242.32-410.301 242.32H711.199z"/>
    <path style="fill:#fecc86" d="M760.487 1329.272a80.492 80.492 0 0 0-24.155-9.937l-3.932-21.045-14.639.037-14.639.037-3.825 21.064a80.473 80.473 0 0 0-24.105 10.059l-17.663-12.103-10.325 10.377-10.325 10.377 12.191 17.602a80.518 80.518 0 0 0-9.937 24.155l-21.045 3.932.037 14.639.037 14.639 21.065 3.825a80.507 80.507 0 0 0 10.058 24.105l-12.103 17.664 10.377 10.325 10.377 10.325 17.602-12.192a80.518 80.518 0 0 0 24.155 9.937l3.932 21.045 14.639-.037 14.639-.037 3.825-21.065a80.497 80.497 0 0 0 24.105-10.058l17.664 12.103 10.325-10.377 10.325-10.377-12.192-17.602a80.492 80.492 0 0 0 9.937-24.155l21.045-3.932-.037-14.639-.037-14.639-21.064-3.825a80.473 80.473 0 0 0-10.059-24.105l12.103-17.663-10.377-10.325-10.377-10.325-17.602 12.191zm-3.542 107.678c-21.393 21.501-56.166 21.589-77.667.196-21.501-21.393-21.589-56.166-.196-77.667 21.393-21.501 56.166-21.589 77.667-.196 21.501 21.393 21.589 56.166.196 77.667z"/>
    <path style="fill:#fff" d="M336.415 993.269h317.73c10.149 0 18.376 8.228 18.376 18.377v153.896c0 10.149-8.227 18.377-18.376 18.377h-27.061l12.33 33.668-48.697-33.668H336.415c-10.149 0-18.376-8.228-18.376-18.377v-153.896c0-10.149 8.227-18.377 18.376-18.377z"/>
    <path style="fill:#b1e8fc" d="M351.328 1113.333h295.583a3.704 3.704 0 1 0 0-7.408H351.328a3.704 3.704 0 1 0 0 7.408zM454.856 1029.194h192.055a3.704 3.704 0 1 0 0-7.408H454.856a3.704 3.704 0 1 0 0 7.408zM563.87 1155.402h83.041a3.704 3.704 0 1 0 0-7.408H563.87a3.704 3.704 0 1 0 0 7.408zM351.328 1155.402h186.569a3.704 3.704 0 1 0 0-7.408H351.328a3.704 3.704 0 1 0 0 7.408zM349.134 1029.194h76.64a3.704 3.704 0 1 0 0-7.408h-76.64a3.704 3.704 0 1 0 0 7.408zM526.191 1071.263h120.72a3.704 3.704 0 1 0 0-7.408h-120.72a3.704 3.704 0 1 0 0 7.408zM349.134 1071.263H499.12a3.704 3.704 0 1 0 0-7.408H349.134a3.704 3.704 0 1 0 0 7.408z"/>
    <path style="fill:#aac9f8" d="M378.048 526.896h269.725c8.616 0 15.6 6.985 15.6 15.6V673.14c0 8.616-6.984 15.6-15.6 15.6h-22.972l10.467 28.581-41.34-28.581h-215.88c-8.616 0-15.6-6.984-15.6-15.6V542.496c0-8.615 6.985-15.6 15.6-15.6z"/>
    <path style="fill:#fff" d="M390.708 628.819h250.924a3.143 3.143 0 1 0 0-6.288H390.708a3.143 3.143 0 1 0 0 6.288zM478.594 557.392h163.037a3.143 3.143 0 1 0 0-6.288H478.594a3.144 3.144 0 1 0 0 6.288zM571.137 664.532h70.494a3.143 3.143 0 1 0 0-6.288h-70.494a3.143 3.143 0 1 0 0 6.288zM390.708 664.532h158.381a3.143 3.143 0 1 0 0-6.288H390.708a3.143 3.143 0 1 0 0 6.288zM388.845 557.392h65.06a3.143 3.143 0 1 0 0-6.288h-65.06a3.144 3.144 0 1 0 0 6.288zM539.151 593.106h102.481a3.143 3.143 0 1 0 0-6.288H539.151a3.143 3.143 0 1 0 0 6.288zM388.845 593.106H516.17a3.143 3.143 0 1 0 0-6.288H388.845a3.143 3.143 0 1 0 0 6.288z"/>
    <path style="fill:#aac9f8" d="M1896.239 451.509h-238.696c-7.625 0-13.805 6.181-13.805 13.805v115.615c0 7.625 6.181 13.806 13.805 13.806h20.329l-9.263 25.293 36.584-25.293h191.046c7.625 0 13.806-6.181 13.806-13.806V465.314c0-7.624-6.181-13.805-13.806-13.805z"/>
    <path style="fill:#fff" d="M1885.036 541.707h-222.058a2.783 2.783 0 0 1 0-5.565h222.058a2.782 2.782 0 1 1 0 5.565zM1807.26 478.497h-144.282a2.783 2.783 0 0 1 0-5.566h144.282a2.783 2.783 0 0 1 0 5.566zM1725.362 573.312h-62.385a2.782 2.782 0 1 1 0-5.566h62.385a2.782 2.782 0 1 1 0 5.566zM1885.036 573.312h-140.161a2.782 2.782 0 1 1 0-5.566h140.161a2.782 2.782 0 1 1 0 5.566zM1886.684 478.497h-57.576a2.783 2.783 0 0 1 0-5.566h57.576a2.783 2.783 0 0 1 0 5.566zM1753.669 510.102h-90.692a2.782 2.782 0 1 1 0-5.565h90.692a2.782 2.782 0 1 1 0 5.565zM1886.684 510.102h-112.678a2.782 2.782 0 1 1 0-5.565h112.678a2.782 2.782 0 1 1 0 5.565z"/>
    <ellipse style="opacity:.5;fill:#fecc86" cx="946.92" cy="1691.889" rx="246.842" ry="16.931"/>
    <ellipse style="opacity:.5;fill:#fecc86" cx="1725.049" cy="1691.889" rx="246.842" ry="16.931"/>
    <path style="fill:#5780bc" d="m1119.693 743.766-352.774-38.78c-24.855-2.56-45.222 17.539-45.222 41.916v812.427c0 24.377 20.368 44.279 45.222 41.719l352.774-38.584c20.745-2.137 37.399-21.64 37.399-43.589v-731.52c-.001-21.95-16.654-41.452-37.399-43.589zm22.086 769.459c0 11.971-9.107 22.551-20.387 23.641l-356.481 34.438c-13.485 1.303-14.36-8.32-14.36-21.507V749.091c0-14.716 2.141-25.422 17.167-23.935l351.301 34.753c12.6 1.247 22.761 13.072 22.761 26.431v726.885z"/>
    <path style="fill:#d8ecfe" d="M1161.601 777.95a21.666 21.666 0 0 0-.033-.722c-.448-8.126-6.516-15.19-14.119-16.419-.224-.042-.457-.075-.681-.108-.075-.008-.149-.025-.224-.033l-368.148-36.415c-.091-.008-.174-.008-.266-.017-.274-.016-.539-.033-.813-.042-9.131-.373-16.46 6.018-17 14.867-.025.266-.033.523-.042.789-.008.091-.017.174-.017.266v818.147c0 8.516 7.105 14.717 15.821 13.878l117.354-11.339 1.195-.116.291-.025 87.065-8.409.515-.05.772-.075.747-.075 84.998-8.209.481-.05 1.004-.091 77.976-7.537c7.263-.706 13.132-7.529 13.132-15.257v-742.72c0-.08-.008-.155-.008-.238zm-401.051 5.412v-24.711l26.338 2.382a6.547 6.547 0 0 0 2.465.747 5.734 5.734 0 0 0 2.465-.299l13.638 1.237a6.298 6.298 0 0 0 2.449.739 5.8 5.8 0 0 0 2.449-.291l13.513 1.22c.73.398 1.56.656 2.424.739a5.705 5.705 0 0 0 2.432-.299l265.81 24.088v.481l40.465 3.661v-.473l26.479 2.399v22.436L760.55 783.362z"/>
    <path style="fill:#49263e" d="m1124.838 1538.445-.756.072c.086.331.18.669.273.993l.828-.173c-.115-.28-.23-.582-.345-.892z"/>
    <path style="fill:#273359" d="m1146.318 760.648-367.652-36.371c-10.145-1.004-18.406 6.199-18.406 16.099v42.961l.286.024 400.932 34.056.132.011v-39c0-8.987-6.833-16.943-15.292-17.78z"/>
    <path style="fill:#fff" d="M795.366 756.453c0 2.384-1.452 4.304-3.544 5.031a5.812 5.812 0 0 1-2.469.296 6.5 6.5 0 0 1-2.463-.743c-2.099-1.101-3.566-3.3-3.566-5.69 0-3.253 2.709-5.635 6.029-5.326 3.324.31 6.013 3.188 6.013 6.432zM813.863 758.152c0 2.374-1.439 4.286-3.514 5.011a5.745 5.745 0 0 1-2.447.296 6.402 6.402 0 0 1-2.45-.74c-2.081-1.103-3.528-3.283-3.528-5.664 0-3.239 2.677-5.613 5.978-5.305 3.296.307 5.961 3.172 5.961 6.402zM832.203 759.836c0 2.364-1.427 4.269-3.484 4.991a5.684 5.684 0 0 1-2.427.296 6.319 6.319 0 0 1-2.429-.736c-2.063-1.098-3.497-3.268-3.497-5.638 0-3.225 2.654-5.59 5.927-5.285 3.267.305 5.91 3.156 5.91 6.372zM1092.423 777.916v15.145l40.638 1.589v-4.702l2.115.08v-6.698l-2.115-.077v-3.902l-40.638-1.435zm39.232 15.433-37.853-1.468v-12.676l37.853 1.348v12.796z"/>
    <path style="fill:#fff" d="m1096.084 789.928 3.986.152v-8.675l-3.986-.144zM1102.773 790.184l4 .153v-8.69l-4-.145zM1109.67 790.448l4.013.153v-8.705l-4.013-.144z"/>
    <path style="fill:#5780bc" d="m726.479 910.891-9.566-.53v-76.165l9.566.697zM726.479 1002.594l-9.566-.33V926.1l9.566.496zM741.532 746.904v812.427c0 24.376 20.368 42.031 45.219 39.469l89.179-9.183 2.836-.295 255.698-26.334.41-.043 4.649-.482c20.749-2.137 37.403-21.634 37.403-43.585V787.352c0-21.944-16.654-41.448-37.403-43.585l-352.772-36.338c-24.851-2.563-45.219 15.092-45.219 39.475zm18.734 2.188c0-14.718 12.257-25.42 27.284-23.937l351.303 34.755c12.602 1.245 22.757 13.07 22.757 26.428v726.89c0 11.969-9.104 22.548-20.382 23.635l-6.772.655-.417.043-7.722.741-1.476.144c.115.309.23.612.346.892l-.828.173a36.945 36.945 0 0 1-.273-.993l-283.291 27.378-5.175.497-39.03 3.771-11.846 1.144c-13.487 1.303-24.477-8.327-24.477-21.512V749.092z"/>
    <path style="fill:#49263e" d="m1125.533 1540.089-.459-1.667-1.329.128.199 1.599z"/>
    <path style="fill:#5780bc" d="m1136.297 1537.339-295.503 28.556v27.34l300.985-31.079z"/>
    <path style="fill:#feefdc" d="M616.345 1605.239a61.113 61.113 0 0 0 4.382-19.352l15.265-5.611-1.883-10.96-1.883-10.96-16.262-.196a61.142 61.142 0 0 0-10.589-16.781l6.827-14.764-9.081-6.419-9.081-6.419-11.64 11.362a61.14 61.14 0 0 0-19.352-4.382l-5.611-15.265-10.96 1.883-10.96 1.883-.196 16.263a61.162 61.162 0 0 0-16.781 10.588l-14.764-6.827-6.419 9.081-6.419 9.081 11.362 11.64a61.14 61.14 0 0 0-4.382 19.352l-15.265 5.611 1.882 10.96 1.882 10.96 16.263.197a61.162 61.162 0 0 0 10.588 16.781l-6.827 14.764 9.081 6.419 9.081 6.419 11.64-11.362a61.14 61.14 0 0 0 19.352 4.382l5.612 15.265 10.96-1.883 10.96-1.883.196-16.263a61.162 61.162 0 0 0 16.781-10.588l14.764 6.827 6.419-9.081 6.419-9.081-11.361-11.641zm-81.103 10.99c-18.816-13.3-23.288-39.334-9.988-58.15 13.3-18.816 39.334-23.287 58.15-9.988 18.816 13.3 23.287 39.334 9.988 58.15-13.3 18.816-39.334 23.288-58.15 9.988z"/>
    <path style="fill:#fecc86" d="M1104.286 362.829c2.147-75.071-56.964-137.668-132.028-139.815-75.064-2.147-137.657 56.969-139.804 132.04-1.065 37.236 12.947 71.398 36.496 96.642l-.005.001s39.874 45.168 52.393 93.514c0 0 23.517 8.745 41.427 9.706 17.936.064 41.915-7.322 41.915-7.322 15.261-47.551 57.652-90.366 57.652-90.366l-.005-.001c24.953-23.857 40.894-57.163 41.959-94.399z"/>
    <path style="fill:#4cb7d8" d="M960.692 626.273c-11.668-.334-20.855-10.063-20.522-21.732l42.252 1.208c-.334 11.67-10.063 20.858-21.73 20.524z"/>
    <path style="fill:#4cb7d8" d="M961.131 610.93c-25.023-.716-44.729-21.581-44.013-46.605l.859-30.058 90.618 2.592-.86 30.057c-.715 25.024-21.581 44.729-46.604 44.014z"/>
    <g style="opacity:.3">
        <path style="fill:#fecc86" d="M1104.286 362.829c.796-27.812-6.819-53.91-20.534-75.858-42.555 96.819-107.838 160.89-199.891 183.83 11.07 15.416 25.665 38.572 34.179 63.469l90.555 2.59v.005c17.539-43.074 53.736-79.637 53.736-79.637l-.005-.001c24.954-23.856 40.895-57.162 41.96-94.398z"/>
    </g>
    <path style="fill:#f99247" d="m985.511 536.731-3.86-1.174c.14-.461 14.149-46.708 24.306-94.196 17.623-82.398 9.354-100.217 2.856-103.505-6.643-3.361-11.954-2.945-15.788 1.239-.279.305-.548.626-.806.962 9.34 5.875 11.393 14.548 11.84 18.049 1.232 9.66-3.344 19.137-10.2 21.127-1.66.481-4.833.658-7.451-3.559-4.159-6.697-5.047-23.168.134-33.987-4.618-2.045-10.279-3.225-16.793-3.411l-3.923-.112c-6.513-.186-12.233.668-16.961 2.445 4.553 11.097 2.725 27.491-1.808 33.939-2.854 4.059-6.011 3.704-7.643 3.126-6.731-2.378-10.758-12.101-8.976-21.675.646-3.469 3.193-12.011 12.852-17.342-.238-.35-.488-.686-.75-1.006-3.587-4.396-8.869-5.117-15.691-2.14-6.674 2.911-15.948 20.229-3.064 103.5 7.426 47.991 18.768 94.963 18.882 95.432l-3.921.951c-.114-.47-11.492-47.586-18.944-95.744-10.288-66.48-8.511-101.754 5.435-107.836 10.82-4.718 17.081-.816 20.43 3.286.47.576.908 1.187 1.316 1.831 4.812-1.887 10.999-3.027 18.958-2.8l3.923.112c7.959.228 14.072 1.721 18.768 3.879.443-.619.916-1.204 1.419-1.753 3.576-3.906 10.051-7.442 20.583-2.113 13.575 6.869 13.334 42.187-.737 107.97-10.193 47.653-24.245 94.042-24.386 94.505zm-40.32-194.448c-5.828 3.184-9.606 8.11-10.787 14.455-1.556 8.356 2.029 15.605 6.353 17.133.402.142 1.474.524 2.998-1.644 3.883-5.521 5.291-20.357 1.436-29.944zm44.923 1.285c-4.397 9.351-3.839 24.243-.279 29.976 1.399 2.251 2.489 1.931 2.899 1.813 4.405-1.278 8.398-8.31 7.322-16.741-.816-6.402-4.306-11.536-9.942-15.048z"/>
    <path style="fill:#21111d" d="M917.292 535.199c-.995-3.13-1.45-4.279-2.451-6.795l-.544-1.375c-15.837-40.117-45.808-74.324-46.109-74.664l-.094-.107c-24.67-26.509-37.683-61.033-36.648-97.232 2.159-75.507 65.34-135.179 140.84-133.02 46.354 1.326 88.545 25.737 112.861 65.299l-1.719 1.057c-23.957-38.981-65.528-63.033-111.2-64.339-74.388-2.128-136.639 56.666-138.766 131.061-1.022 35.723 11.843 69.789 36.224 95.925l1.276 1.368-.095.017c5.73 6.785 31.13 37.987 45.305 73.896l.543 1.371c1.017 2.562 1.482 3.731 2.499 6.929l-1.922.609z"/>
    <path style="fill:#21111d" d="m875.245 293.473-1.92-.617c.107-.334 11.113-33.503 45.284-45.115l.649 1.91c-33.187 11.277-43.909 43.497-44.013 43.822zM881.131 305.747l-1.92-.617c.107-.334 11.112-33.503 45.284-45.115l.649 1.91c-33.188 11.278-43.909 43.498-44.013 43.822zM966.042 612.08l-9.879-.283c-22.816-.652-40.847-19.748-40.195-42.565l1.03-36.001 91.626 2.621-.058 2.017-89.61-2.563-.972 33.985c-.621 21.706 16.532 39.871 38.236 40.491l9.879.282c10.392.297 20.309-3.436 27.925-10.512l1.372 1.478c-8.005 7.438-18.43 11.362-29.354 11.05z"/>
    <path style="fill:#21111d" d="M961.25 627.306c-19.639-.562-21.929-19.695-21.951-19.891l2.006-.218c.081.735 2.21 18.002 20.658 18.103l-.012 2.018a26.852 26.852 0 0 1-.701-.012zM1059.396 437.7l-1.155-1.654c18.32-12.797 21.778-34.938 21.811-35.16l1.996.293c-.034.23-3.601 23.213-22.652 36.521zM1055.702 427.902l-1.155-1.654c13.351-9.327 15.88-25.475 15.904-25.637l1.996.293c-.102.696-2.661 17.16-16.745 26.998zM913.299 552.268l.034-2.017c.769.013 77.203 1.208 101.659-7.12l.651 1.909c-24.788 8.442-99.189 7.281-102.344 7.228zM912.819 569.296l.02-2.018c.836.008 83.799.736 99.536-7.124l.902 1.805c-16.169 8.077-97.024 7.371-100.458 7.337zM916.481 586.892l.04-2.017c.749.014 75.176 1.359 95.401-8.371l.874 1.818c-20.655 9.938-93.236 8.631-96.315 8.57z"/>
    <path style="fill:#f99247" d="M798.416 332.666a3.726 3.726 0 0 1-.258-.018l-47.981-5.469a3.025 3.025 0 1 1 .685-6.013l47.981 5.469a3.026 3.026 0 0 1-.427 6.031zM825.485 256.745a3.009 3.009 0 0 1-1.69-.578l-39.059-28.401a3.027 3.027 0 0 1 3.559-4.895l39.058 28.401a3.026 3.026 0 0 1-1.868 5.473zM899.06 203.833a3.027 3.027 0 0 1-2.749-1.967l-16.889-45.246a3.026 3.026 0 1 1 5.669-2.116l16.889 45.246a3.026 3.026 0 0 1-2.92 4.083zM1136.88 351.07a3.027 3.027 0 0 1-.023-6.049l48.258-1.804a3.035 3.035 0 0 1 3.136 2.911 3.026 3.026 0 0 1-2.911 3.137l-48.258 1.804a4.535 4.535 0 0 1-.202.001zM1115.663 273.309a3.026 3.026 0 0 1-1.504-5.601l41.106-25.348a3.026 3.026 0 0 1 3.175 5.151l-41.106 25.348a2.998 2.998 0 0 1-1.671.45zM1055.846 208.141a3.026 3.026 0 0 1-2.658-4.297l20.281-43.83a3.026 3.026 0 0 1 5.492 2.542l-20.281 43.83a3.026 3.026 0 0 1-2.834 1.755zM978.983 182.432l-.047-.002a3.027 3.027 0 0 1-2.891-3.156l2.124-48.249a3.027 3.027 0 0 1 3.109-2.892l.047.002a3.027 3.027 0 0 1 2.891 3.156l-2.124 48.249a3.027 3.027 0 0 1-3.109 2.892z"/>
    <g style="opacity:.5">
        <path style="fill:#f3fffe" d="M1061.474 296.005c-4.969 7.248-21.3 4.688-36.476-5.718-15.176-10.406-23.45-24.718-18.48-31.966 4.969-7.248 21.3-4.689 36.476 5.718 15.175 10.406 23.449 24.718 18.48 31.966z"/>
    </g>
    <path style="fill:#fdba68" d="M1345.624 540.312c-43.945 0-79.57 35.625-79.57 79.57 0 43.945 35.625 79.57 79.57 79.57s79.57-35.625 79.57-79.57c0-43.945-35.624-79.57-79.57-79.57zm0 153.04c-40.577 0-73.47-32.894-73.47-73.47 0-40.577 32.894-73.47 73.47-73.47s73.47 32.894 73.47 73.47c.001 40.576-32.893 73.47-73.47 73.47z"/>
    <path style="fill:#fff" d="M1354.011 653.056c-2.524 3.423-7.64 3.43-10.173.013l-43.683-58.936c-4.344-5.861-3.114-14.135 2.747-18.479 5.861-4.344 14.134-3.115 18.479 2.747l27.496 37.097 55.13-74.771c4.33-5.873 12.6-7.124 18.472-2.793 5.872 4.33 7.123 12.6 2.793 18.472l-71.261 96.65z"/>
    <path style="fill:#fe9f73" d="m1657.347 1666.202 59.328.8.916-62.122-59.087-8.092zM1845.622 1649.908l59.377-11.813-12.408-60.913-60.7 4.635z"/>
    <path style="fill:#102e5b" d="M1760.814 1128.381c-2.192 64.153-11.742 315.103-31.926 479.293-1.33 10.823-10.632 18.991-21.69 18.965-12.242-.028-29.271-1.462-48.141-7.137-9.121-2.742-15.455-10.918-15.613-20.317l-8.374-499.572c-.02-1.214.063-2.427.25-3.626l.384-2.468c2.116-13.6 16.434-21.795 29.464-16.866l81.619 30.881c8.709 3.296 14.341 11.657 14.027 20.847z"/>
    <path style="fill:#133671" d="M1835.181 1099.434s1.139 127.458 19.43 268.023c10.156 78.038 39.14 159.083 43.843 227.066.624 9.013-5.529 17.078-14.473 19.041-12.663 2.778-32.183 5.4-55.003 2.768-7.739-.892-14.094-6.469-15.863-13.95l-63.689-215.095-38.619-217.484-41.37-118.265 165.744 47.896z"/>
    <path d="M1810.81 1595.515a.953.953 0 0 0 .262-.037.92.92 0 0 0 .636-1.144l-61.368-207.257-28.79-162.13a.939.939 0 0 0-1.083-.75.924.924 0 0 0-.76 1.068l28.808 162.231.015.05 61.382 207.307a.934.934 0 0 0 .898.662zM1874.9 1470.163c.07 0 .141-.007.212-.024a.924.924 0 0 0 .703-1.11c-7.016-29.929-17.174-88.738-22.605-121.13-.157-.935-.264-1.575-.37-2.006h-.002.002l-.002-.01c-.002-.421-.052-1.018-.123-1.875l-14.117-168.311a.928.928 0 0 0-1.013-.846.927.927 0 0 0-.858.998c.142 1.686 14.119 168.161 14.273 170.191l.005.059.105.905.048-.004.201 1.2c5.434 32.413 15.6 91.266 22.627 121.246a.935.935 0 0 0 .914.717zM1643.161 1583.166h.015a.931.931 0 0 0 .923-.94l-6.788-404.932c-.009-.511-.405-.935-.954-.911a.931.931 0 0 0-.923.94l6.787 404.932c.01.506.428.911.94.911z"/>
    <path style="fill:#ef3a4c" d="m1718.035 1674.424-52.028.015-21.101-22.646-38.575 22.663-8.31.002c-2.863.001-5.488 1.911-6.026 4.683-.725 3.731 2.157 6.992 5.811 6.991l120.975-.036c.889 0 1.609-.711 1.609-1.587l-.002-7.769c-.002-1.278-1.055-2.316-2.353-2.316z"/>
    <path style="fill:#49263e" d="m1717.575 1674.491-.006-21.055s-8.765-11.625-22.105-5.686c0 0-20.174 14.118-37.968-2.954l-44.167 19.33s-12.11 3.995-15.388 10.4l119.634-.035z"/>
    <path d="M1717.129 1653.436h.886v20.95h-.886zM1677.38 1653.677c-1.691 0-2.71-.142-2.743-.147l.131-.863c.103.014 10.531 1.452 20.444-5.277l.502.719c-7.102 4.822-14.47 5.567-18.334 5.568zM1706.822 1670.561l-.495-.724 5.642-3.753.495.725zM1702.776 1669.501l-.495-.723 5.641-3.753.495.723z"/>
    <path d="M1593.689 1685.122a6.225 6.225 0 0 1-2.249-4.783c-.001-3.459 2.853-6.275 6.362-6.276l119.616-.035c1.881-.001 3.412 1.508 3.412 3.363l.002 5.82h-.886l-.002-5.82c0-1.374-1.134-2.49-2.526-2.49l-119.616.036c-3.021.001-5.477 2.424-5.477 5.402a5.36 5.36 0 0 0 1.936 4.118l-.572.665z"/>
    <path d="m1598.202 1674.686-.801-.373c.099-.207 2.521-5.103 11.561-8.906 8.884-3.738 47.96-20.838 48.353-21.01l.36.798c-.395.172-39.476 17.274-48.365 21.015-8.699 3.661-11.085 8.428-11.108 8.476z"/>
    <path style="fill:#ef3a4c" d="m1907.835 1641.814-49.994 14.202-26.632-16.008-30.711 32.298-7.985 2.268c-2.752.782-4.738 3.333-4.478 6.144.35 3.783 4.035 6.131 7.546 5.134l116.245-33.023a1.584 1.584 0 0 0 1.101-1.964l-2.182-7.466c-.359-1.229-1.662-1.939-2.91-1.585z"/>
    <path style="fill:#49263e" d="m1907.412 1642.003-5.913-20.231s-11.685-8.781-22.838.564c0 0-15.426 19.069-37.316 7.514l-37.021 30.62s-10.517 7.141-11.87 14.191l114.958-32.658z"/>
    <path d="M1862.946 1632.963c-1.625.461-2.644.603-2.677.607l-.116-.865c.103-.015 10.527-1.476 18.166-10.646l.684.554c-5.473 6.57-12.345 9.295-16.057 10.35zM1791.342 1686.002a6.294 6.294 0 0 1-3.504-3.984c-.972-3.324.981-6.808 4.353-7.765l114.939-32.652c1.808-.514 3.702.519 4.223 2.301l1.634 5.593-.851.242-1.635-5.593c-.386-1.32-1.788-2.084-3.126-1.704l-114.939 32.652c-2.903.825-4.584 3.823-3.747 6.685a5.418 5.418 0 0 0 3.016 3.43l-.363.795z"/>
    <path d="m1792.752 1674.743-.874-.139c.037-.226.99-5.591 8.611-11.712 7.489-6.015 40.242-33.103 40.571-33.375l.57.669c-.331.273-33.089 27.365-40.582 33.383-7.332 5.889-8.288 11.121-8.296 11.174z"/>
    <path style="fill:#fe9f73" d="M1470.762 993.542c.338-2.742-.035-6.063-1.336-7.107l-18.379-23.761a4.636 4.636 0 0 0-6.985 5.817c1.725 3.202 3.002 6.625 4.203 10.057l2.887 8.252c-2.115.241-12.594 4.146-19.76 4.446v18.439l-1.026-.159c.418 3.908.834 8.006 1.049 11.682.247 4.225-.929 7.893 2.521 10.072 1.996 1.26 12.46 1.248 16.18.968l26.931-.253c-.691-7.376-1.246-11.56-6.285-38.453zM1703.089 932.219s-29.874 64.742-43.244 77.457c-13.37 12.715-169.645 22.727-169.645 22.727l-4.131-48.159 125.746-28.77 32.971-62.356 58.303 39.101z"/>
    <path style="fill:#f07162" d="M1635.431 974.818a1.85 1.85 0 0 1-.904-.342l-23.89-17.233a1.86 1.86 0 1 1 2.176-3.016l23.89 17.233a1.86 1.86 0 0 1-1.272 3.358z"/>
    <path style="fill:#fe9f73" d="M1423.807 1006.653c.683 3.06 3.275 4.961 3.971 4.808l23.265-5.128c2.615-.576 4.463-3.052 4.056-5.698a5.025 5.025 0 0 0-6.051-4.155l-23.858 5.258s-2.066 1.855-1.383 4.915z"/>
    <path style="fill:#fe9f73" d="M1426.015 1016.319c.624 3.073 3.179 5.023 3.878 4.883l23.359-4.68c2.625-.526 4.52-2.966 4.165-5.619a5.026 5.026 0 0 0-5.971-4.271l-23.955 4.799c.001 0-2.1 1.815-1.476 4.888z"/>
    <path style="fill:#fe9f73" d="M1428.913 1025.11c.548 2.869 2.907 4.713 3.559 4.591l21.809-4.104c2.451-.461 4.243-2.713 3.941-5.189a4.681 4.681 0 0 0-5.515-4.043l-22.365 4.209s-1.977 1.667-1.429 4.536z"/>
    <path style="fill:#f07162" d="M1427.776 1012.319a.945.945 0 0 1-.199-1.87l23.266-5.041c2.186-.482 3.648-2.515 3.323-4.63a4.056 4.056 0 0 0-1.728-2.757 4.038 4.038 0 0 0-3.186-.619l-21.271 4.688a.95.95 0 0 1-1.126-.72.943.943 0 0 1 .72-1.126l21.271-4.688a5.993 5.993 0 0 1 4.661.907 5.923 5.923 0 0 1 2.528 4.029c.475 3.096-1.628 6.068-4.787 6.764l-23.269 5.042a.94.94 0 0 1-.203.021z"/>
    <path style="fill:#fe9f73" d="M1423.8 996.539c.652 2.92 3.125 4.733 3.789 4.587l22.196-4.892c2.494-.55 4.257-2.912 3.87-5.436a4.795 4.795 0 0 0-5.773-3.965l-22.762 5.017s-1.971 1.77-1.32 4.689z"/>
    <path style="fill:#f07162" d="M1427.588 1001.945a.902.902 0 0 1-.191-1.784l22.197-4.809c2.086-.46 3.48-2.4 3.17-4.418a3.864 3.864 0 0 0-1.649-2.63 3.854 3.854 0 0 0-3.04-.591l-20.294 4.473a.909.909 0 0 1-1.075-.687.903.903 0 0 1 .687-1.075l20.293-4.472a5.722 5.722 0 0 1 4.447.865 5.647 5.647 0 0 1 2.412 3.844c.454 2.954-1.553 5.789-4.568 6.453l-22.199 4.81a.814.814 0 0 1-.19.021zM1430.541 1021.482a.946.946 0 0 1-.172-1.875l22.827-4.246c2.21-.442 3.566-2.225 3.284-4.333a4.046 4.046 0 0 0-1.673-2.788 4.034 4.034 0 0 0-3.174-.681l-23.954 4.799a.944.944 0 1 1-.371-1.853l23.954-4.799a5.988 5.988 0 0 1 4.644.996 5.919 5.919 0 0 1 2.448 4.076c.414 3.092-1.604 5.8-4.8 6.44l-22.84 4.249a1.134 1.134 0 0 1-.173.015z"/>
    <path style="fill:#f07162" d="M1432.471 1030.646a.944.944 0 0 1-.174-1.874l21.809-4.104c2.019-.379 3.414-2.2 3.177-4.145a3.71 3.71 0 0 0-1.504-2.572 3.7 3.7 0 0 0-2.899-.657l-22.365 4.208a.944.944 0 1 1-.349-1.857l22.365-4.209a5.65 5.65 0 0 1 4.365.989 5.583 5.583 0 0 1 2.263 3.869c.358 2.931-1.709 5.668-4.704 6.231l-21.809 4.104a.952.952 0 0 1-.175.017z"/>
    <path style="fill:#fe9f73" d="M1460.063 980.565s12.158 5.379 15.519 5.168c3.361-.21 17.206-3.028 17.206-3.028l6.759 49.059s-10.312 1.223-28.167.284c-17.856-.939-11.317-51.483-11.317-51.483z"/>
    <path style="fill:#7fc6a6" d="M1737.203 825.659s-83.683-32.659-102.875-3.115c-19.191 29.544-50.896 110.149-50.417 112.23 5.216 22.676 32.672 47.037 49.494 56.004 15.706 8.372 20.624 2.576 30.932-10.063 17.636-21.622 25.341-116.689 25.59-115.939.228.686 47.276-39.117 47.276-39.117z"/>
    <path style="fill:#7fc6a6" d="M1836.201 826.899c6.178 8.758 13.512 33.61 22.758 60.313 12.253 35.389 25.943 73.221 25.943 73.221s2.103 10.675-48.002 15.359l3.351 170.81s-96.281 32.851-209.442-.368c0 0-5.044-303.362 10.54-326.98 15.584-23.618 168.751-29.36 194.852 7.645z"/>
    <path style="fill:#fe9f73" d="m1704.682 719.31-1.289 49.142s-1.073 15.781 12.699 18.118l-3.134 21.01c-1.165 7.81 3.323 15.433 10.786 18.013a43.199 43.199 0 0 0 13 2.358c15.798.415 24.666-11.209 26.138-17.099 1.472-5.89-1.735-34.298-1.735-34.298l.846-13.896-.384-53.938-56.927 10.59z"/>
    <path style="fill:#f07162" d="M1748.491 773.99s-1.621 26.418-34.71 28.077l2.311-15.496c0-.001 21.304 4.864 32.399-12.581z"/>
    <path d="M1742.148 746.085a.66.66 0 0 0 .505-1.102c-.088-.097-8.899-9.595-17.347-3.146a.658.658 0 1 0 .799 1.047c7.486-5.713 15.248 2.629 15.574 2.987a.659.659 0 0 0 .469.214zM1765.015 739.773l-14.284 2.585-2.638 2.593s1.855-23.784 4.653-28.396c2.799-4.613 12.269 23.218 12.269 23.218zM1715.117 741.424a.658.658 0 0 0 .462-1.144c-.259-.237-6.398-5.772-10.456-2.472a.659.659 0 0 0 .83 1.022c3.18-2.585 8.682 2.372 8.737 2.423.122.11.274.167.427.171zM1728.767 748.396a1.974 1.974 0 1 0 3.95.104 1.974 1.974 0 0 0-3.95-.104zM1707.828 745.871a1.975 1.975 0 1 0 3.95.103 1.975 1.975 0 0 0-3.95-.103z"/>
    <path style="fill:#fe9f73" d="M1745.095 748.138c-.172 6.544 4.994 11.987 11.538 12.159 6.544.172 11.988-4.994 12.159-11.538.172-6.544-4.994-11.988-11.538-12.159-6.544-.171-11.988 4.994-12.159 11.538z"/>
    <path style="fill:#f07162" d="M1758.844 755.08c2.461.065 4.154-1.742 4.744-3.577.698-2.17.019-4.314-1.727-5.463-2.581-1.698-4.987-.715-6.227.055.547-1.331 1.374-2.289 2.469-2.854 2.368-1.224 5.239-.212 5.268-.202a.33.33 0 0 0 .225-.62c-.128-.046-3.163-1.12-5.79.234-1.516.781-2.572 2.207-3.136 4.237l-.317 1.139.86-.811c.122-.115 3.011-2.781 6.287-.628 1.814 1.193 1.921 3.283 1.462 4.711-.477 1.482-1.834 3.18-4.097 3.12-.023 0-.044-.003-.068-.002a.33.33 0 0 0-.021.658l.068.003zM1721.452 761.534a.33.33 0 0 0 .12-.639l-6.541-2.355 2.492-15.473a.329.329 0 0 0-.273-.377.325.325 0 0 0-.378.272l-2.579 16.012 7.055 2.539c.034.014.069.02.104.021z"/>
    <path style="fill:#fbfdfc" d="M1726.393 768.078c-.202-.045-13.024-.682-13.024-.682s1.471 5.349 6.237 5.598c4.765.25 6.787-4.916 6.787-4.916z"/>
    <path d="M1765.015 739.773s4.606-22.966-2.233-31.751c-6.838-8.785-46.984-24.897-52.011-20.727-5.027 4.171-.25 9.521-.25 9.521s-16.141-5.648-20.205 8.69 30.787 21.399 51.849 15.19c0 .001 13.707 4.392 22.85 19.077z"/>
    <path style="fill:#fe9f73" d="M1678.884 1037.682c1.959.371 86.943 11.362 142.905-7.297 19.479-6.495 37.621-21.631 46.554-33.847 13.556-18.538 4.698-54.086-7.885-79.523l-29.862 32.093a50.254 50.254 0 0 1-11.416 9.148c-15.565 9.105-51.87 29.534-88.426 32.498l-51.87 46.928z"/>
    <path style="fill:#7fc6a6" d="M1884.902 960.432s-.93 1.519-5.643 4.661c-5.539 3.693-16.627 9.194-42.359 10.699 0 0-27.349.477-59.686-15.359-32.337-15.837 38.915-75.666 38.915-75.666l33.982 12.693 15.347 12.606 19.444 50.366z"/>
    <path d="M1607.546 972.053a.871.871 0 0 0 .545-1.552c-19.315-15.447-22.96-33.79-23.291-35.691 6.613-26.511 44.951-109.409 55.929-117.581 11.215-8.347 69.255-15.953 69.84-16.029a.87.87 0 1 0-.224-1.728c-2.407.312-59.079 7.742-70.657 16.36-11.969 8.908-50.717 94.772-56.623 118.733l-.041.164.025.168c.029.202 3.127 20.309 23.953 36.964.161.13.353.192.544.192z"/>
    <path d="M1694.742 1159.732c-38.443-4.203-63.955-12.587-64.208-12.671l-.549-.183-.045-.577c-6.028-78.136 4.218-292.247 4.322-294.401.024-.482.439-.87.913-.829a.872.872 0 0 1 .828.912c-.104 2.148-10.293 215.091-4.37 293.599 3.895 1.23 28.138 8.573 63.298 12.417 35.316 3.862 89.151 4.873 145.065-12.23a.87.87 0 1 1 .51 1.666c-36.547 11.18-72.199 14.66-102.424 14.66a400.292 400.292 0 0 1-43.34-2.363zm-63.941-13.498h.009-.009zM1840.461 975.584c16.466 0 33.881-3.273 45.059-14.538l.385-.389-.183-.516-45.184-127.527c-.207-.701-5.729-18.244-34.288-24.251-28.093-5.91-39.379-7.275-39.489-7.289a.871.871 0 1 0-.205 1.73c.11.013 11.339 1.374 39.335 7.263 27.553 5.797 32.94 22.913 32.991 23.086l45.013 127.048c-24.241 23.681-79.707 9.363-86.108 7.606-.84-19.522-14.564-106.451-14.704-107.337a.871.871 0 0 0-1.721.272c.142.895 14.162 89.7 14.707 107.758l.019.631.606.178c1.458.431 21.765 6.275 43.767 6.275z"/>
    <path d="M1785.957 885.638a.872.872 0 0 0 .675-1.422l-8.743-10.738a.871.871 0 0 0-1.35 1.101l8.742 10.738a.87.87 0 0 0 .676.321zM1798.138 1127.042a.863.863 0 0 0 .581-.223l22.281-20.007a.87.87 0 1 0-1.164-1.297l-22.281 20.007a.87.87 0 0 0 .583 1.52zM1804.013 1137.902a.865.865 0 0 0 .613-.253l16.405-16.263a.872.872 0 0 0-1.227-1.237l-16.405 16.263a.87.87 0 0 0 .614 1.49z"/>
    <path style="fill:#c2fbff" d="M1685.266 1036.49h-31.579c-3.198 0-5.791-2.981-5.791-6.658v-72.977c0-3.677 2.593-6.658 5.791-6.658h31.579c3.198 0 5.791 2.981 5.791 6.658v72.977c0 3.677-2.593 6.658-5.791 6.658z"/>
    <path style="fill:#21111d" d="M1685.266 1037.635a1.146 1.146 0 0 1 0-2.291c2.562 0 4.645-2.473 4.645-5.513v-72.978c0-3.039-2.084-5.512-4.645-5.512h-31.58a1.145 1.145 0 0 1 0-2.291h31.58c3.825 0 6.936 3.501 6.936 7.803v72.978c0 4.304-3.111 7.804-6.936 7.804z"/>
    <path style="fill:#fe9f73" d="M1645.315 998.443c-3.748-5.836 1.964-11.041 1.964-11.041-.229-7.681 2.402-10.469 2.402-10.469s18.796 10.18 29.299 16.802c6.632.392 9.565-2.269 9.565-2.269l.109.303c1.303-5.544 2.929-12.479 3.094-13.263.281-1.329 2.856-3.009 5.289 1.899 2.433 4.908 5.558 14.301 5.558 14.301l39.52-5.434-16.302 52.025s-41.491-2.809-47.784-3.676c-6.293-.866-26.799-10.507-32.099-17.176-5.299-6.67-2.91-11.136-2.91-11.136-3.555-6.747 2.295-10.866 2.295-10.866z"/>
    <path style="fill:#f07162" d="M1659.408 997.457a.763.763 0 0 0 .538-1.409c-5.129-2.943-12.089-9.152-12.158-9.215a.765.765 0 0 0-1.019 1.139c.29.259 7.148 6.378 12.417 9.401a.773.773 0 0 0 .222.084zM1657.411 1006.922a.764.764 0 0 0 .449-1.454c-6.649-2.749-11.978-7.544-12.031-7.592a.765.765 0 0 0-1.027 1.131c.224.204 5.572 5.019 12.475 7.873a.67.67 0 0 0 .134.042zM1653.472 1017.364a.764.764 0 0 0 .469-1.444c-5.671-2.539-10.337-7.11-10.384-7.157a.763.763 0 1 0-1.072 1.087c.197.195 4.911 4.812 10.833 7.463.05.024.102.04.154.051z"/>
    <g style="opacity:.3">
        <path style="fill:#fff" d="M1651.442 961.463a5.238 5.238 0 1 0 10.478 0 5.24 5.24 0 0 0-10.478 0z"/>
    </g>
    <path style="fill:#fff" d="M2218.821 796.697h-234.279c-7.483 0-13.55 6.067-13.55 13.55v113.476c0 7.483 6.066 13.55 13.55 13.55h19.953l-9.092 24.825 35.907-24.825h187.511c7.483 0 13.55-6.067 13.55-13.55V810.247c0-7.484-6.067-13.55-13.55-13.55z"/>
    <path style="fill:#b1e8fc" d="M2207.825 885.226h-217.949a2.73 2.73 0 1 1 0-5.462h217.949a2.73 2.73 0 1 1 0 5.462zM2131.488 823.185h-141.612a2.73 2.73 0 1 1 0-5.462h141.612a2.73 2.73 0 1 1 0 5.462zM2051.106 916.246h-61.23a2.73 2.73 0 1 1 0-5.462h61.23a2.73 2.73 0 1 1 0 5.462zM2207.825 916.246h-137.567a2.73 2.73 0 1 1 0-5.462h137.567a2.73 2.73 0 1 1 0 5.462zM2209.443 823.185h-56.51a2.73 2.73 0 1 1 0-5.462h56.51a2.73 2.73 0 1 1 0 5.462zM2078.889 854.206h-89.014a2.73 2.73 0 1 1 0-5.462h89.014a2.73 2.73 0 1 1 0 5.462zM2209.443 854.206H2098.85a2.73 2.73 0 1 1 0-5.462h110.593a2.73 2.73 0 1 1 0 5.462z"/>
    <path style="fill:#aac9f8" d="M2084.046 1180.009v142.136c0 13.12 10.636 23.764 23.764 23.764h343.641c13.128 0 23.764-10.645 23.764-23.764v-142.292c0-12.218-9.211-22.273-21.068-23.609H2107.81c-13.128 0-23.764 10.637-23.764 23.765z"/>
    <path style="fill:#aac9f8" d="M2211.236 1335.608c-.487 1.215-58.311 58.317-58.366 56.387-.055-1.929-.053-1.939 15.073-67.778l43.293 11.391z"/>
    <path style="fill:#fff" d="M2205.669 1248.536c0 18.672-10.8 34.82-26.491 42.551-6.306 3.105-13.413 4.846-20.915 4.846a47.19 47.19 0 0 1-13.404-1.926c-19.648-5.778-33.993-23.949-33.993-45.471 0-26.174 21.223-47.397 47.397-47.397 26.183.001 47.406 21.223 47.406 47.397z"/>
    <path style="fill:#8cd2f9" d="M2202.433 1248.541c0 17.135-9.76 31.992-24.027 39.309-.213.115-.434.229-.656.336a44.012 44.012 0 0 1-19.487 4.515c-4.187 0-8.244-.582-12.079-1.68-.139-.033-.271-.074-.41-.115-18.307-5.384-31.672-22.314-31.672-42.366 0-24.387 19.773-44.161 44.161-44.161 24.396.001 44.17 19.774 44.17 44.162z"/>
    <path style="fill:#fe9f73" d="M2178.406 1287.85c-.213.115-.434.229-.656.336a44.012 44.012 0 0 1-19.487 4.515c-4.187 0-8.244-.582-12.079-1.68l.344-2.295 1.491-10.006c-8.891-1.508-8.203-11.694-8.203-11.694l.82-31.156.016-.574 36.753-6.842.106 14.341.016 2.77.016 1.565.008 1.745.09 12.161.016 2.245-.549 8.973c.003.002 1.011 8.909 1.298 15.596z"/>
    <path style="fill:#f07162" d="M2168.94 1270.6s-1.046 17.057-22.412 18.128l1.492-10.005c.001-.001 13.756 3.141 20.92-8.123z"/>
    <path d="m2179.609 1248.507-9.223 1.669-1.703 1.674s1.198-15.357 3.004-18.335c1.807-2.978 7.922 14.992 7.922 14.992z"/>
    <path style="fill:#fe9f73" d="M2166.747 1253.908a7.653 7.653 0 1 0 15.3.401 7.653 7.653 0 0 0-15.3-.401z"/>
    <path d="M2179.609 1248.507s2.974-14.828-1.442-20.5c-4.415-5.672-30.337-16.076-33.582-13.383-3.246 2.693-.161 6.147-.161 6.147s-10.421-3.647-13.046 5.611c-2.624 9.258 19.879 13.817 33.478 9.808-.001 0 8.85 2.835 14.753 12.317z"/>
    <path style="fill:#fff" d="m2227.747 1185.035 5.232 10.602 11.7 1.7-8.466 8.252 1.998 11.653-10.464-5.502-10.465 5.502 1.999-11.653-8.466-8.252 11.699-1.7zM2278.676 1185.035l5.232 10.602 11.7 1.7-8.466 8.252 1.998 11.653-10.464-5.502-10.465 5.502 1.999-11.653-8.466-8.252 11.7-1.7zM2329.605 1185.035l5.232 10.602 11.7 1.7-8.466 8.252 1.999 11.653-10.465-5.502-10.465 5.502 1.999-11.653-8.466-8.252 11.7-1.7zM2380.534 1185.035l5.232 10.602 11.7 1.7-8.466 8.252 1.999 11.653-10.465-5.502-10.464 5.502 1.998-11.653-8.466-8.252 11.7-1.7zM2431.463 1185.035l5.233 10.602 11.699 1.7-8.466 8.252 1.999 11.653-10.465-5.502-10.464 5.502 1.998-11.653-8.466-8.252 11.7-1.7z"/>
    <path style="fill:#223749" d="m1062.908 1166.594 4.861-17.588c.387.106 39.194 10.371 78.462-6.917l7.353 16.7c-45.407 19.993-88.848 8.312-90.676 7.805z"/>
    <path style="fill:#374169" d="M1267.029 1078.356a6.272 6.272 0 1 1-9.74-7.903l14.198-17.499a6.272 6.272 0 0 1 9.741 7.903l-14.199 17.499zM1263.01 1056.547a7.89 7.89 0 0 1-11.01 1.812 7.89 7.89 0 0 1-1.812-11.01l16.524-23.034a7.89 7.89 0 0 1 12.822 9.198l-16.524 23.034zM1235.783 1047.022a7.89 7.89 0 0 1-3.056-10.731l13.787-24.769a7.89 7.89 0 0 1 13.788 7.674l-13.787 24.769a7.891 7.891 0 0 1-10.732 3.057zM1210.405 1049.974a7.89 7.89 0 0 1-3.056-10.731l13.787-24.769a7.89 7.89 0 0 1 13.788 7.675l-13.787 24.769a7.892 7.892 0 0 1-10.732 3.056zM1196.372 1071.627a9.124 9.124 0 0 1-10.827-7.016l-6.847-32.053a9.122 9.122 0 0 1 7.016-10.826c4.927-1.053 9.774 2.089 10.827 7.015l6.847 32.053a9.124 9.124 0 0 1-7.016 10.827z"/>
    <path style="fill:#8cd2f9" d="M1154.113 1171.342s-18.94-33.561-10.716-46.557c8.224-12.995 43.533-62.644 48.625-72.68 5.092-10.037 36.421-22.299 59.052-6.484s25.035 29.281-7.555 67.82c-32.592 38.539-85.22 66.178-89.406 57.901z"/>
    <path style="fill:#1d1d1b" d="M1244.075 1113.913c18.62-22.019 25.956-36.092 24.528-47.057-.992-7.614-6.109-14.144-17.113-21.833a40.202 40.202 0 0 0-3.473-2.171c-10.109-5.628-22.789-7.057-35.444-3.883-10.079 2.527-18.601 7.674-21.203 12.806-2.501 4.929-12.694 19.975-21.295 32.531-2.963 4.326-5.99 8.725-8.918 12.979-7.813 11.353-15.192 22.076-18.378 27.11-8.336 13.173 9.806 45.725 10.69 47.293.52 1.014 1.562 1.618 3.094 1.799 12.727 1.493 58.893-25.732 87.512-59.574zm-1.115-.942c-30.215 35.729-75.22 60.358-86.226 59.066-.542-.063-.983-.19-1.319-.377a1.542 1.542 0 0 1-.651-.646l-.016-.029c-.187-.332-18.631-33.329-10.735-45.808 3.172-5.01 10.543-15.722 18.347-27.063a6784.49 6784.49 0 0 0 8.92-12.981c9.162-13.376 18.868-27.72 21.392-32.696 2.386-4.703 10.716-9.658 20.258-12.051 13.739-3.445 27.493-1.317 37.725 5.835 10.633 7.43 15.568 13.658 16.501 20.824 1.369 10.516-5.867 24.251-24.196 45.926z"/>
    <path style="fill:#1d1d1b" d="M1224.996 1084.465c-8.335-10.791-22.65-16.307-42.546-16.394l.007-1.46c13.027.056 23.735 2.411 32.019 7.022 4.672 2.6 8.573 5.919 11.683 9.947 13.275 17.197 7.199 41.626 7.136 41.871l-1.414-.363c.06-.237 5.956-23.998-6.885-40.623z"/>
    <path style="fill:#111e28" d="M945.633 1085.865h-48.117v18.197h97.859v-18.197h-48.117z"/>
    <path style="fill:#223749" d="M868.749 1303.786c0 7.686 3.712 14.05 8.572 15.218h52.281c4.86-1.168 8.572-7.532 8.572-15.218v-26.305h-69.425v26.305z"/>
    <path style="fill:#374169" d="M954.717 1303.786c0 7.686 3.713 14.05 8.572 15.218h52.281c4.859-1.168 8.572-7.532 8.572-15.218v-26.305h-69.425v26.305z"/>
    <path style="fill:#49b3e2" d="m1038.716 1129.053-.752-7.05c-2.686-10.328-12.072-17.941-23.232-17.941H878.159c-11.16 0-20.546 7.613-23.232 17.941l-.752 7.05-12.685 118.272-.672 6.284v.029c.329 12.97 10.948 23.386 23.999 23.386h163.257c13.051 0 23.671-10.416 23.999-23.386v-.029l-.672-6.284-12.685-118.272z"/>
    <path style="fill:#223749" d="M883.266 1124.925c-1.288-5.304-6.901-8.306-12.026-6.429-14.922 5.465-43.936 19.087-65.714 47.848l14.547 11.015c18.93-24.998 44.802-37.017 57.511-41.713 4.34-1.604 6.774-6.223 5.682-10.721z"/>
    <path style="fill:#374169" d="M752.783 1286.705a6.27 6.27 0 0 0-7.261 5.094l-3.894 22.195a6.271 6.271 0 1 0 12.354 2.168l3.894-22.195a6.27 6.27 0 0 0-5.093-7.262zM768.379 1301.961a7.89 7.89 0 0 0-8.739 6.938l-3.234 28.163a7.89 7.89 0 1 0 15.676 1.8l3.234-28.163a7.888 7.888 0 0 0-6.937-8.738zM788.063 1303.979a7.89 7.89 0 0 0-7.89 7.89v28.348a7.89 7.89 0 0 0 15.78 0v-28.348a7.89 7.89 0 0 0-7.89-7.89zM808.801 1289.057a7.89 7.89 0 0 0-7.89 7.89v28.348a7.89 7.89 0 0 0 7.89 7.889 7.89 7.89 0 0 0 7.89-7.889v-28.348a7.89 7.89 0 0 0-7.89-7.89zM823.403 1264.177a9.122 9.122 0 0 0-13.736 12.008l21.572 24.677a9.122 9.122 0 0 0 13.736-12.008l-21.572-24.677z"/>
    <path style="fill:#8cd2f9" d="M798.958 1155.632c-7.684-5.196-40.225 44.55-49.957 94.075-9.732 49.525-1.081 60.121 26.384 62.933 27.465 2.812 48.876-23.14 48.443-34.386-.432-11.246 6.272-71.799 7.137-87.154.865-15.355-32.007-35.468-32.007-35.468z"/>
    <path style="fill:#223749" d="M888.537 1319.005h31.791v60.225h-31.791zM1016.745 1319.005h31.791v60.225h-31.791z"/>
    <path style="fill:#374169" d="M989.816 1085.865h-48.117v18.197h97.859v-18.197h-48.117zM912.932 1303.786c0 7.686 3.712 14.05 8.572 15.218h52.28c4.86-1.168 8.572-7.532 8.572-15.218v-26.305h-69.425v26.305z"/>
    <path style="fill:#8cd2f9" d="M946.604 1451.57v-47.671c0-22.842-21.122-39.96-43.419-35.001-13.174 2.931-24.779 9.29-26.975 22.335-5.515 32.764-7.461 101.536-7.461 101.536h111.592c0-.001 1.298-31.143-33.737-41.199z"/>
    <path style="fill:#223749" d="M865.722 1492.768h119.377v9.732H865.722z"/>
    <path style="fill:#374169" d="M998.9 1303.786c0 7.686 3.712 14.05 8.572 15.218h52.281c4.859-1.168 8.572-7.532 8.572-15.218v-26.305H998.9v26.305z"/>
    <path style="fill:#8cd2f9" d="m1082.899 1129.053-.752-7.05c-2.686-10.328-12.073-17.941-23.232-17.941H922.343c-11.16 0-20.546 7.613-23.232 17.941l-.752 7.05-12.685 118.272-.672 6.284v.029c.328 12.97 10.948 23.386 23.999 23.386h163.257c13.051 0 23.67-10.416 23.999-23.386v-.029l-.672-6.284-12.686-118.272zM1074.812 1451.57v-47.671c0-22.842-21.121-39.96-43.419-35.001-13.174 2.931-24.78 9.29-26.975 22.335-5.515 32.764-7.461 101.536-7.461 101.536h111.592c0-.001 1.298-31.143-33.737-41.199z"/>
    <path style="fill:#223749" d="M993.93 1492.768h119.378v9.732H993.93z"/>
    <path style="fill:#111e28" d="M1101 911.849h4.486v66.311H1101z"/>
    <path style="fill:#374169" d="M1125.907 1004.231a6.42 6.42 0 1 0 0 12.838 6.42 6.42 0 0 0 0-12.838z"/>
    <path style="fill:#111e28" d="M1117.682 996.378h8.225v28.543h-8.225z"/>
    <path style="fill:#374169" d="M1105.988 970.452h-20.215v80.769h20.215c5.906 0 10.797-4.319 11.695-9.973v-60.824c-.898-5.653-5.789-9.972-11.695-9.972z"/>
    <circle transform="rotate(-77.83 1103.205 911.147)" style="fill:#374169" cx="1103.222" cy="911.122" r="11.343"/>
    <path style="fill:#49b3e2" d="M1038.606 910.124c-10.858-6.61-78.481-6.066-85.63-5.99-7.149-.076-74.772-.62-85.63 5.99-11.467 6.98-25.428 88.747-26.923 108.191-1.49 19.372.984 70.413 111.931 75.724v.06c.209-.009.415-.02.623-.03.209.01.414.021.623.03v-.06c110.947-5.311 113.42-56.352 111.93-75.724-1.496-19.444-15.456-101.211-26.924-108.191z"/>
    <path style="fill:#8cd2f9" d="M1072.559 910.124c-10.858-6.61-78.481-6.066-85.63-5.99-7.149-.076-74.772-.62-85.631 5.99-11.467 6.98-25.427 88.747-26.923 108.191-1.49 19.372-16.267 71.55 94.68 76.861h26.051c110.947-5.311 105.867-57.489 104.377-76.861-1.496-19.444-15.456-101.211-26.924-108.191z"/>
    <path style="fill:#111e28" d="M843.958 918.182h2.349v52.415h-2.349z"/>
    <path style="fill:#111e28" d="M854.175 970.452h-14.476c-5.724 0-10.495 4.057-11.601 9.454-.07.343-.094.695-.094 1.046v59.769c0 .351.024.703.094 1.046 1.106 5.397 5.876 9.454 11.601 9.454h14.476a5.74 5.74 0 0 0 5.739-5.739V976.19a5.74 5.74 0 0 0-5.739-5.738z"/>
    <path style="fill:#111e28" d="M846.307 911.849h4.486v66.311h-4.486z"/>
    <path style="fill:#374169" d="M823.393 1004.231a6.42 6.42 0 1 0 0 12.838 6.42 6.42 0 0 0 0-12.838z"/>
    <path style="fill:#111e28" d="M823.393 996.378h8.225v28.543h-8.225z"/>
    <path style="fill:#374169" d="M860.281 970.452h-14.476c-5.724 0-10.495 4.057-11.6 9.454-.07.343-.094.695-.094 1.046v59.769c0 .351.024.703.094 1.046 1.106 5.397 5.876 9.454 11.6 9.454h14.476a5.74 5.74 0 0 0 5.739-5.739V976.19a5.739 5.739 0 0 0-5.739-5.738z"/>
    <circle transform="rotate(-59.437 848.528 911.087)" style="fill:#374169" cx="848.571" cy="911.122" r="11.343"/>
    <path style="fill:#374169" d="M1051.24 932.116c-8.099-4.93-58.149-4.574-64.311-4.511-6.162-.063-56.212-.418-64.311 4.511-8.633 5.255-19.143 66.811-20.268 81.449-1.12 14.565.745 52.907 83.956 56.988v.064c.211-.009.413-.022.623-.032.21.01.412.023.623.032v-.064c83.211-4.08 85.076-42.423 83.956-56.988-1.126-14.639-11.635-76.195-20.268-81.449z"/>
    <circle style="fill:#fff" cx="939.689" cy="999.096" r="13.266"/>
    <path style="fill:#fff" d="M1034.169 985.829c-7.327 0-13.266 5.94-13.266 13.266 0 7.327 5.939 13.266 13.266 13.266s13.266-5.94 13.266-13.266-5.939-13.266-13.266-13.266zM964.676 1023.333c12.608 22.659 36.319 21.8 48.155-1.744h-49.126l.971 1.744z"/>
    <path style="fill:#49b3e2" d="m1031.776 1143.221-.046-.359c-1.504-8.29-7.079-14.079-13.555-14.079h-59.813c-6.476 0-12.05 5.79-13.555 14.079l-6.225 82.94-.01.147.001.188c.179 10.121 6.305 18.049 13.945 18.049h71.5c7.641 0 13.766-7.928 13.945-18.049v-.207l-5.859-78.286-.328-4.423zm-7.758 94.095h-71.5c-3.706 0-6.932-5.118-7.073-11.158l5.838-78.004.315-4.235c.922-4.801 3.749-8.267 6.763-8.267h59.813c3.015 0 5.841 3.466 6.764 8.267l6.153 82.234c-.153 6.066-3.373 11.163-7.073 11.163z"/>
    <path style="fill:#1d1d1b" d="M947.334 1451.022V1403.9c0-11.167-4.999-21.581-13.716-28.572-8.652-6.94-19.802-9.541-30.591-7.142-16.323 3.631-25.587 11.344-27.536 22.926-5.46 32.439-7.451 100.948-7.471 101.637l-.021.751h113.042l.029-.699c.014-.317.909-31.519-33.736-41.779zm32.28 41.017H869.501c.234-7.578 2.295-70.179 7.429-100.685 1.841-10.939 10.727-18.254 26.413-21.743 10.357-2.304 21.058.194 29.362 6.856 8.37 6.712 13.169 16.711 13.169 27.433v48.22l.528.152c17.797 5.109 25.874 15.821 29.516 23.908 3.268 7.257 3.66 13.767 3.696 15.859z"/>
    <path style="fill:#1d1d1b" d="m868.168 1492.328 1.163.882c26.078-34.368 76.851-40.854 77.361-40.915l-.174-1.45c-.517.062-51.893 6.614-78.35 41.483zM1075.542 1451.022V1403.9c0-11.167-5-21.582-13.716-28.572-8.651-6.94-19.802-9.541-30.591-7.142-16.323 3.631-25.587 11.344-27.537 22.926-5.46 32.439-7.451 100.948-7.471 101.637l-.021.751h113.043l.029-.699c.014-.317.909-31.519-33.736-41.779zm32.28 41.017H997.709c.234-7.578 2.294-70.179 7.429-100.685 1.841-10.939 10.728-18.254 26.414-21.743 10.357-2.304 21.056.194 29.361 6.855 8.37 6.712 13.169 16.712 13.169 27.434v48.22l.528.152c17.797 5.109 25.874 15.821 29.516 23.908 3.268 7.257 3.66 13.767 3.696 15.859z"/>
    <path style="fill:#1d1d1b" d="m996.375 1492.328 1.163.882c26.078-34.368 76.851-40.854 77.361-40.915l-.175-1.45c-.515.062-51.892 6.614-78.349 41.483zM1067.595 1301.909c0 14.837-7.26 16.27-7.892 16.366H877.321v1.46h182.473l.041-.005c.377-.043 9.219-1.245 9.219-17.821v-24.428h-1.46v24.428z"/>
    <path transform="rotate(-89.805 967.929 1277.125)" style="fill:#1d1d1b" d="M967.143 1170.556h1.46v213.136h-1.46z"/>
    <path transform="rotate(-83.886 891.723 1190.552)" style="fill:#1d1d1b" d="M837.814 1189.815h107.897v1.46H837.814z"/>
    <path transform="rotate(-54.266 1063.854 1246.702)" style="fill:#1d1d1b" d="M1056.088 1245.921h15.452v1.459h-15.452z"/>
    <path transform="rotate(-54.261 1072.79 1254.738)" style="fill:#1d1d1b" d="M1065.111 1254.057h15.451v1.459h-15.451z"/>
    <path style="fill:#1d1d1b" d="M799.352 1155.017c-.948-.632-2.151-.654-3.579-.067-11.846 4.885-38.943 51.127-47.488 94.616-5.56 28.295-5.125 44.159 1.456 53.046 4.569 6.171 12.216 9.387 25.57 10.754a40.15 40.15 0 0 0 4.09.208c11.568 0 23.344-4.919 32.857-13.844 7.578-7.111 12.521-15.752 12.3-21.503-.212-5.518 1.376-23.625 2.785-38.782.486-5.236.993-10.568 1.483-15.724 1.302-13.699 2.533-26.638 2.868-32.579.876-15.565-30.804-35.182-32.342-36.125zm30.884 36.041c-.334 5.914-1.563 18.839-2.864 32.524-.49 5.156-.997 10.49-1.484 15.727-1.5 16.147-3.004 33.403-2.789 38.973.202 5.269-4.667 13.651-11.841 20.383-10.328 9.691-23.372 14.526-35.799 13.249-12.904-1.321-20.245-4.362-24.546-10.17-6.311-8.524-6.669-24.044-1.195-51.896 9.022-45.913 36.367-89.322 46.613-93.546.504-.208.95-.312 1.336-.312.344 0 .639.083.883.248l.029.018c.322.197 32.488 20.058 31.657 34.802z"/>
    <path style="fill:#1d1d1b" d="M779.278 1266.016c-19.306-8.28-25.711-31.909-25.773-32.147l-1.412.371c.064.244 6.637 24.545 26.6 33.114 4.677 2.007 9.698 3.01 15.045 3.01 9.48 0 19.983-3.151 31.392-9.437l-.704-1.279c-17.426 9.601-32.615 11.746-45.148 6.368zM1100.042 1018.272c-1.437-18.687-15.316-101.399-27.191-108.627-10.964-6.674-78.287-6.154-85.916-6.072-7.642-.083-74.964-.602-85.928 6.072-11.873 7.227-25.753 89.94-27.191 108.627-.109 1.417-.293 3.041-.488 4.76-1.325 11.697-3.328 29.374 9.63 44.601 14.118 16.59 43.076 26.045 86.097 28.104h26.077c45.368-2.172 76.501-12.489 92.534-30.664 14.709-16.674 13.218-35.917 12.418-46.255l-.042-.546zm-13.217 46.058c-15.824 17.939-46.693 28.129-91.719 30.285h-26.024c-42.672-2.042-71.361-11.365-85.269-27.709-12.643-14.857-10.673-32.244-9.37-43.749.196-1.73.381-3.364.492-4.8 1.544-20.072 15.585-101.016 26.655-107.755 8.786-5.348 55.566-5.952 76.227-5.952 4.496 0 7.757.029 9.119.043 7.608-.081 74.635-.604 85.333 5.909 11.072 6.74 25.112 87.683 26.655 107.755l.042.546c.787 10.174 2.254 29.109-12.141 45.427zM866.521 975.358c-.615-4.879-6.131-5.459-6.186-5.464l-.029-.003-16.351.145.01 1.122 16.291-.144c.417.047 4.641.615 5.149 4.451l.055 67.191 1.122-.001-.055-67.227-.006-.07z"/>
    <path style="fill:#1d1d1b" d="m1106.911 969.902-14.958-.01v1.122h14.79c.694.154 8.344 1.997 10.189 8.541l1.08-.305c-2.112-7.493-10.735-9.276-11.101-9.348z"/>
    <path transform="rotate(-.636 1117.708 1008.618)" style="fill:#1d1d1b" d="M1117.438 980.423h1.122v56.916h-1.122z"/>
    <path style="fill:#1d1d1b" d="M1035.931 1061.319c-13.63 5.199-30.364 8.198-48.393 8.673-36.404.945-66.833-17.633-67.136-17.821l-.592.953c.298.185 29.461 18.025 64.995 18.025.915 0 1.839-.012 2.762-.036 37.139-.978 66.941-12.316 77.774-29.59l-.951-.596c-5.142 8.2-14.984 15.252-28.459 20.392zM932.117 929.143l.045 1.121c.751-.03 75.489-2.968 105.015-.532l.092-1.119c-29.591-2.441-104.4.5-105.152.53z"/>
    <path style="fill:#5780bc" d="M726.479 1008.543h34.071v406.377h-34.071z"/>
</svg>
