<?xml version="1.0" encoding="utf-8"?>
<!-- Generator: Adobe Illustrator 27.5.0, SVG Export Plug-In . SVG Version: 6.00 Build 0)  -->
<svg version="1.1" xmlns="http://www.w3.org/2000/svg" xmlns:xlink="http://www.w3.org/1999/xlink" x="0px" y="0px"
	 viewBox="0 0 750 500" style="enable-background:new 0 0 750 500;" xml:space="preserve">
<g id="Background_Simple">
	<g>
		<path style="fill:#92E3A9;" d="M707.97,169.596C651.86,64.035,476.04,4.056,373.19,115.549c-4.046,4.386-7.872,8.976-11.466,13.73
			c-26.226,34.695-65.595,94.765-113.648,80.075c-32.898-10.057-55.462-37.801-87.998-48.595
			c-42.892-14.229-83.659,14.9-109.915,52.123c-30.522,43.271-45.12,94.051-27.754,140.998
			c32.346,87.444,158.273,107.124,244.451,99.105c63.116-5.873,124.035-37.678,187.253-39.687
			c45.483-1.446,88.988,10.262,129.976,24.821c18.991,6.746,37.966,14.178,58.515,16.038c73.514,6.653,87.549-61.738,89.305-119.267
			C733.653,277.75,734.151,218.85,707.97,169.596z"/>
		<path style="opacity:0.7;fill:#FFFFFF;" d="M707.97,169.596C651.86,64.035,476.04,4.056,373.19,115.549
			c-4.046,4.386-7.872,8.976-11.466,13.73c-26.226,34.695-65.595,94.765-113.648,80.075c-32.898-10.057-55.462-37.801-87.998-48.595
			c-42.892-14.229-83.659,14.9-109.915,52.123c-30.522,43.271-45.12,94.051-27.754,140.998
			c32.346,87.444,158.273,107.124,244.451,99.105c63.116-5.873,124.035-37.678,187.253-39.687
			c45.483-1.446,88.988,10.262,129.976,24.821c18.991,6.746,37.966,14.178,58.515,16.038c73.514,6.653,87.549-61.738,89.305-119.267
			C733.653,277.75,734.151,218.85,707.97,169.596z"/>
	</g>
</g>
<g id="Floor">
	<line style="fill:none;stroke:#263238;stroke-miterlimit:10;" x1="735.396" y1="351.937" x2="6.723" y2="351.937"/>
</g>
<g id="Plant">
	<g>
		<g>
			<g>
				<path style="fill:#263238;" d="M676.81,148.326l0.003-0.007c0.021-0.053-0.004-0.113-0.057-0.135
					c-0.054-0.023-0.116,0.001-0.139,0.055c-3.199,7.388-5.449,15.144-7.327,22.967c-1.812,7.845-3.125,15.803-4.043,23.81
					l-0.573,6.018c-0.089,1.004-0.198,2.007-0.27,3.012l-0.164,3.019c-0.087,2.014-0.21,4.028-0.268,6.043l0.055,6.048l0.067,3.022
					c0.045,1.007,0.117,2.012,0.185,3.018c0.153,2.01,0.275,4.021,0.459,6.027c0.386,4.009,0.988,7.998,1.609,11.968
					c0.008,0.051,0.052,0.09,0.105,0.09c0.058,0,0.106-0.048,0.105-0.107v-0.006c-0.011-2.016-0.096-4.021-0.141-6.027
					c-0.058-2.005-0.233-4-0.205-6.005c0.009-2.004-0.043-4.004-0.065-6.003l-0.056-2.998l0.053-2.998l0.027-5.993l0.162-5.99
					l0.062-2.997c0.038-0.999,0.113-1.995,0.168-2.992l0.368-5.986c0.701-7.966,1.795-15.903,3.391-23.748
					C671.916,163.595,673.886,155.789,676.81,148.326z"/>
				<path style="fill:#263238;" d="M677.669,179.664c0.015-0.054-0.013-0.114-0.066-0.132c-0.055-0.019-0.115,0.01-0.135,0.066
					c-1.725,4.979-3.102,10.073-4.266,15.22c-1.113,5.156-1.986,10.38-2.518,15.643c-0.532,5.244-1.119,10.494-1.191,15.768
					c-0.081,5.27,0.003,10.547,0.56,15.813c0.006,0.049,0.044,0.089,0.095,0.095c0.059,0.006,0.111-0.036,0.117-0.095
					c0.609-5.25,0.981-10.487,1.344-15.723c0.372-5.233,0.422-10.481,0.763-15.716c0.316-5.219,0.971-10.417,1.87-15.581
					C675.121,189.856,676.219,184.71,677.669,179.664z"/>
				<path style="fill:#263238;" d="M695.042,190.688c-0.031-0.049-0.097-0.064-0.146-0.033c-4.349,2.753-8.227,6.221-11.617,10.128
					c-1.666,1.983-3.214,4.059-4.542,6.316l-0.933,1.761l-0.731,1.83c-0.263,0.607-0.448,1.232-0.638,1.855
					c-0.188,0.624-0.398,1.246-0.566,1.874c-1.305,5.035-2.169,10.166-2.403,15.324c-0.21,5.155-0.112,10.317,0.576,15.435
					c0.008,0.048,0.048,0.088,0.098,0.092c0.059,0.004,0.109-0.04,0.114-0.098l1.324-15.279c0.528-5.051,0.851-10.132,1.935-15.065
					c0.138-0.614,0.315-1.215,0.47-1.825c0.158-0.609,0.31-1.22,0.536-1.799l0.62-1.766l0.798-1.668
					c1.177-2.207,2.615-4.318,4.162-6.32c3.102-4.004,6.753-7.654,10.908-10.617l0.006-0.004
					C695.059,190.798,695.072,190.735,695.042,190.688z"/>
				<path style="fill:#263238;" d="M686.633,210.317c-2.368,1.529-3.951,3.932-5.282,6.35c-1.269,2.472-2.269,5.092-2.96,7.78
					c-0.208,0.666-0.372,1.34-0.517,2.018l-0.479,2.031c-0.244,1.364-0.435,2.743-0.513,4.126c-0.018,1.386-0.058,2.771,0.036,4.152
					c0.115,1.381,0.272,2.76,0.544,4.126c0.01,0.039,0.042,0.076,0.085,0.085c0.059,0.012,0.115-0.026,0.127-0.085
					c0.335-1.363,0.554-2.714,0.732-4.062c0.215-1.345,0.424-2.682,0.585-4.019c0.196-1.332,0.373-2.661,0.476-4.003
					c0.186-1.324,0.284-2.678,0.574-3.986c0.465-2.648,1.231-5.234,2.265-7.707c1.031-2.452,2.372-4.896,4.435-6.624l0.016-0.014
					c0.04-0.034,0.05-0.092,0.021-0.137C686.747,210.3,686.682,210.286,686.633,210.317z"/>
				<path style="fill:#263238;" d="M662.269,225.621c-0.572-6.783-1.69-13.498-2.747-20.209c-1.061-6.712-2.23-13.404-3.458-20.084
					c-1.271-6.672-2.601-13.331-4.04-19.967c-0.012-0.055-0.066-0.092-0.122-0.082c-0.058,0.011-0.096,0.066-0.085,0.123
					c1.161,6.686,2.211,13.391,3.203,20.102c1.018,6.706,1.976,13.421,2.825,20.147c0.829,6.729,1.475,13.475,2.318,20.192
					l2.481,20.191c0.006,0.051,0.048,0.091,0.101,0.094c0.058,0.003,0.108-0.042,0.111-0.101c0.077-1.701,0.08-3.402,0.121-5.108
					c0.015-1.704-0.069-3.402-0.099-5.106C662.814,232.405,662.524,229.015,662.269,225.621z"/>
				<path style="fill:#263238;" d="M658.201,225.523c-0.362-2.687-0.856-5.357-1.369-8.02l-0.952-3.96
					c-0.312-1.32-0.607-2.643-0.994-3.947c-1.353-5.254-3.083-10.419-5.184-15.424l-0.813-1.866l-0.904-1.826
					c-0.575-1.23-1.27-2.401-1.929-3.586c-1.418-2.31-2.89-4.618-4.896-6.491c-0.041-0.038-0.105-0.038-0.145,0.001
					c-0.042,0.04-0.043,0.107-0.002,0.149l0.01,0.011c1.854,1.922,3.205,4.294,4.478,6.638c0.59,1.206,1.213,2.392,1.718,3.637
					l0.797,1.846l0.706,1.884c1.879,5.021,3.386,10.182,4.52,15.429c0.618,2.609,1.028,5.269,1.533,7.9l0.635,3.975
					c0.23,1.322,0.513,2.634,0.699,3.964c0.423,2.652,0.911,5.297,1.374,7.95c0.411,2.661,0.897,5.316,1.458,7.975
					c0.01,0.048,0.053,0.087,0.104,0.088c0.059,0,0.106-0.047,0.107-0.106c0.012-2.71-0.051-5.421-0.189-8.128
					C658.803,230.913,658.483,228.221,658.201,225.523z"/>
				<path style="fill:#263238;" d="M652.589,225.87c-1.257-3.559-2.711-7.043-4.295-10.458c-1.626-3.397-3.381-6.729-5.402-9.903
					c-0.031-0.045-0.095-0.063-0.143-0.034c-0.051,0.03-0.067,0.094-0.037,0.145c1.765,3.296,3.258,6.735,4.611,10.213
					c1.377,3.469,2.618,6.989,3.657,10.565c1.061,3.572,1.82,7.214,2.771,10.802c0.999,3.585,1.808,7.208,2.91,10.84
					c0.013,0.043,0.054,0.078,0.102,0.079c0.059,0.001,0.107-0.046,0.108-0.105c0.053-3.788-0.318-7.575-1.055-11.284
					C655.15,232.997,653.838,229.426,652.589,225.87z"/>
				<path style="fill:#263238;" d="M652.356,237.723c-0.643-2.228-1.74-4.304-2.986-6.261c-1.224-1.966-2.644-3.825-4.346-5.4
					c-0.877-0.759-1.773-1.49-2.765-2.085c-0.976-0.61-2.012-1.126-3.135-1.418c-0.049-0.013-0.101,0.011-0.123,0.059
					c-0.024,0.053,0,0.116,0.054,0.139l0.013,0.006c2.032,0.904,3.749,2.401,5.201,4.04c1.471,1.642,2.645,3.525,3.624,5.487
					c1.029,1.948,1.561,4.102,2.456,6.108c0.395,1.029,0.787,2.064,1.244,3.092c0.388,1.049,0.817,2.094,1.364,3.134l0.003,0.006
					c0.017,0.033,0.052,0.056,0.092,0.058c0.06,0.002,0.111-0.044,0.113-0.104c0.049-1.16-0.019-2.315-0.129-3.467
					C652.868,239.979,652.628,238.848,652.356,237.723z"/>
			</g>
			<path style="fill:#92E3A9;" d="M652.775,175.071c0,0-11.114-2.565-13.679-14.534c-2.565-11.969,5.7-6.839-1.71-25.648
				c-7.41-18.808-5.7-23.083-3.135-28.498c2.565-5.415,3.99-3.705,6.27,3.42c2.28,7.124,10.544,18.239,13.679,39.042
				C657.335,169.656,652.775,175.071,652.775,175.071z"/>
			<path style="fill:#92E3A9;" d="M674.719,154.837c0,0-7.41-2.565-7.695-16.529c-0.285-13.964,5.415-11.114,6.27-28.498
				c0.855-17.384,1.995-29.638,5.13-29.923c3.135-0.285,11.399,8.549,14.249,27.928c2.85,19.379-3.705,32.202-9.404,37.902
				C677.568,151.418,674.719,154.837,674.719,154.837z"/>
			<path style="fill:#92E3A9;" d="M648.785,191.884c0,0-1.71-10.259-5.13-15.103c-3.42-4.845-10.829-9.12-15.674-18.524
				c-4.845-9.404-10.259-13.964-9.974-0.57c0.285,13.394,6.27,20.234,13.679,24.793C639.096,187.04,648.785,191.884,648.785,191.884
				z"/>
			<path style="fill:#92E3A9;" d="M645.651,209.553c0,0-6.839-13.109-16.813-22.798c-9.974-9.689-17.954-14.534-15.104-9.689
				c2.85,4.845,6.27,4.56,11.114,13.109c4.845,8.549,3.42,14.819,10.259,19.663C641.946,214.683,645.651,209.553,645.651,209.553z"
				/>
			<path style="fill:#92E3A9;" d="M644.796,226.367c-0.285-0.855-0.57-7.125-10.259-12.254c-9.689-5.129-18.809-3.135-17.669-0.57
				c1.14,2.565,7.124,6.84,13.109,9.404C635.961,225.512,644.796,226.367,644.796,226.367z"/>
			<path style="fill:#92E3A9;" d="M674.148,192.454c0,0-4.275-5.415-1.995-16.814c2.28-11.399,7.409-8.55,13.109-14.534
				c5.699-5.984,4.559-6.839,10.259-13.109c5.699-6.27,10.829-9.689,13.109-7.124c2.28,2.565-1.14,10.544-4.56,15.104
				c-3.42,4.56-8.834,6.839-11.399,12.539c-2.565,5.7-1.425,14.819-7.979,19.094C678.138,191.884,674.148,192.454,674.148,192.454z"
				/>
			<path style="fill:#92E3A9;" d="M688.397,195.589c0,0,10.259-11.684,17.669-20.233c7.41-8.55,10.259-15.104,10.544-9.404
				c0.285,5.699,2.565,10.259-3.42,17.669C707.206,191.03,688.397,195.589,688.397,195.589z"/>
			<path style="fill:#92E3A9;" d="M682.983,214.398c0,0-0.285-4.56,15.959-15.104c16.244-10.544,23.083-12.539,21.373-8.264
				c-1.71,4.275-8.834,8.549-16.529,16.244C696.092,214.968,682.983,214.398,682.983,214.398z"/>
			<path style="fill:none;stroke:#263238;stroke-linecap:round;stroke-linejoin:round;stroke-miterlimit:10;" d="M653.453,173.856
				c0,0-3.813-20.444-7.802-34.978c-3.99-14.534-6.555-23.368-6.555-23.368"/>
			<path style="fill:none;stroke:#263238;stroke-linecap:round;stroke-linejoin:round;stroke-miterlimit:10;" d="M674.062,155.052
				c0,0,6.926-22.159,9.206-35.552c2.28-13.394-0.285-23.368-1.425-29.353"/>
			<path style="fill:none;stroke:#263238;stroke-linecap:round;stroke-linejoin:round;stroke-miterlimit:10;" d="M647.887,191.457
				c0,0-4.231-7.552-10.501-14.961c-6.27-7.41-11.114-11.399-13.964-18.523"/>
			<path style="fill:none;stroke:#263238;stroke-linecap:round;stroke-linejoin:round;stroke-miterlimit:10;" d="M674.148,192.454
				c0,0,2.28-13.679,7.694-20.804c5.414-7.124,16.244-18.238,20.518-25.363"/>
			<path style="fill:none;stroke:#263238;stroke-linecap:round;stroke-linejoin:round;stroke-miterlimit:10;" d="M644.126,226.056
				c0,0-9.59-6.244-16.429-9.663"/>
		</g>
		<g>
			<g>
				<path style="fill:#263238;stroke:#263238;stroke-linecap:round;stroke-linejoin:round;stroke-miterlimit:10;" d="
					M699.034,283.497c-0.64-17.293-19.855-28.822-19.855-28.822h-12.155h-5.137H649.73c0,0-19.214,11.529-19.855,28.822
					c-0.641,17.293,21.776,80.7,21.776,80.7h10.234h5.137h10.234C677.258,364.197,699.674,300.789,699.034,283.497z"/>
				<polygon style="fill:#263238;stroke:#263238;stroke-linecap:round;stroke-linejoin:round;stroke-miterlimit:10;" points="
					682.971,237.672 645.395,237.672 649.73,254.675 678.635,254.675 				"/>
			</g>
		</g>
	</g>
</g>
<g id="Pictures">
	<g>
		<g>
			
				<rect x="180.095" y="9.328" style="fill:#263238;stroke:#263238;stroke-linecap:round;stroke-linejoin:round;stroke-miterlimit:10;" width="54.903" height="70.59"/>
			<rect x="183.639" y="13.886" style="fill:#FFFFFF;stroke:#263238;stroke-miterlimit:10;" width="47.813" height="61.474"/>
			
				<rect x="199.829" y="34.701" style="fill:none;stroke:#263238;stroke-linecap:round;stroke-linejoin:round;stroke-miterlimit:10;" width="15.434" height="19.844"/>
		</g>
		<g>
			
				<rect x="250.328" y="62.092" style="fill:#263238;stroke:#263238;stroke-linecap:round;stroke-linejoin:round;stroke-miterlimit:10;" width="54.903" height="70.59"/>
			<rect x="253.872" y="66.65" style="fill:#FFFFFF;stroke:#263238;stroke-miterlimit:10;" width="47.814" height="61.474"/>
			
				<rect x="270.062" y="87.465" style="fill:none;stroke:#263238;stroke-linecap:round;stroke-linejoin:round;stroke-miterlimit:10;" width="15.434" height="19.844"/>
		</g>
		<g>
			
				<rect x="180.095" y="91.03" style="fill:#263238;stroke:#263238;stroke-linecap:round;stroke-linejoin:round;stroke-miterlimit:10;" width="54.903" height="41.235"/>
			<rect x="183.639" y="93.692" style="fill:#FFFFFF;stroke:#263238;stroke-miterlimit:10;" width="47.813" height="35.91"/>
			
				<rect x="199.829" y="105.851" style="fill:none;stroke:#263238;stroke-linecap:round;stroke-linejoin:round;stroke-miterlimit:10;" width="15.434" height="11.592"/>
		</g>
	</g>
</g>
<g id="Shelf">
	<g>
		<path style="fill:#263238;stroke:#263238;stroke-linecap:round;stroke-linejoin:round;stroke-miterlimit:10;" d="M6.885,8.439
			v353.06h142.244V8.439H6.885z M137.99,351.331H18.024V18.607H137.99V351.331z"/>
		<g>
			<polygon style="fill:#FFFFFF;stroke:#263238;stroke-linecap:round;stroke-linejoin:round;stroke-miterlimit:10;" points="
				42.339,50.062 33.188,50.062 28.612,82.601 46.915,82.601 			"/>
			<polygon style="fill:#FFFFFF;stroke:#263238;stroke-linecap:round;stroke-linejoin:round;stroke-miterlimit:10;" points="
				43.79,41.114 31.738,41.114 33.128,50.324 42.399,50.324 			"/>
		</g>
		
			<circle style="fill:#FFFFFF;stroke:#263238;stroke-linecap:round;stroke-linejoin:round;stroke-miterlimit:10;" cx="67.561" cy="68.842" r="14.886"/>
		<g>
			
				<rect x="84.386" y="130.149" style="fill:#FFFFFF;stroke:#263238;stroke-linecap:round;stroke-linejoin:round;stroke-miterlimit:10;" width="47.768" height="48.753"/>
			
				<rect x="92.679" y="138.613" style="fill:#FFFFFF;stroke:#263238;stroke-linecap:round;stroke-linejoin:round;stroke-miterlimit:10;" width="31.182" height="31.825"/>
		</g>
		
			<rect x="19.382" y="134.089" style="fill:#FFFFFF;stroke:#263238;stroke-linecap:round;stroke-linejoin:round;stroke-miterlimit:10;" width="11.819" height="44.321"/>
		
			<rect x="31.693" y="134.089" style="fill:#FFFFFF;stroke:#263238;stroke-linecap:round;stroke-linejoin:round;stroke-miterlimit:10;" width="11.819" height="44.321"/>
		
			<rect x="48.437" y="134.089" transform="matrix(0.9817 -0.1906 0.1906 0.9817 -28.7825 13.2214)" style="fill:#FFFFFF;stroke:#263238;stroke-linecap:round;stroke-linejoin:round;stroke-miterlimit:10;" width="11.819" height="44.321"/>
		
			<rect x="123.688" y="306.889" transform="matrix(-1 -1.224647e-16 1.224647e-16 -1 259.1958 658.0995)" style="fill:#FFFFFF;stroke:#263238;stroke-linecap:round;stroke-linejoin:round;stroke-miterlimit:10;" width="11.819" height="44.321"/>
		
			<rect x="111.377" y="306.889" transform="matrix(-1 -1.224647e-16 1.224647e-16 -1 234.5729 658.0995)" style="fill:#FFFFFF;stroke:#263238;stroke-linecap:round;stroke-linejoin:round;stroke-miterlimit:10;" width="11.819" height="44.321"/>
		
			<rect x="94.634" y="306.889" transform="matrix(-0.9817 -0.1906 0.1906 -0.9817 136.5316 671.2302)" style="fill:#FFFFFF;stroke:#263238;stroke-linecap:round;stroke-linejoin:round;stroke-miterlimit:10;" width="11.819" height="44.321"/>
		<g>
			
				<ellipse style="fill:#FFFFFF;stroke:#263238;stroke-linecap:round;stroke-linejoin:round;stroke-miterlimit:10;" cx="79.201" cy="251.367" rx="14.243" ry="22.542"/>
			<path style="fill:#FFFFFF;stroke:#263238;stroke-linecap:round;stroke-linejoin:round;stroke-miterlimit:10;" d="M84.769,224.481
				c0.447-4.019,4.019-19.649,4.019-19.649h-9.601h-9.601c0,0,3.573,15.63,4.019,19.649c0.447,4.019-1.786,7.591-1.786,7.591
				l7.368,6.475l7.368-6.475C86.555,232.072,84.322,228.5,84.769,224.481z"/>
		</g>
		
			<rect x="18.024" y="83.239" style="fill:#263238;stroke:#263238;stroke-linecap:round;stroke-linejoin:round;stroke-miterlimit:10;" width="119.966" height="12.959"/>
		
			<rect x="18.024" y="178.913" style="fill:#263238;stroke:#263238;stroke-linecap:round;stroke-linejoin:round;stroke-miterlimit:10;" width="119.966" height="12.959"/>
		
			<rect x="18.024" y="274.586" style="fill:#263238;stroke:#263238;stroke-linecap:round;stroke-linejoin:round;stroke-miterlimit:10;" width="119.966" height="12.959"/>
	</g>
</g>
<g id="Shadow">
	<path style="opacity:0.14;" d="M609.194,209.141c-1.306-5.783-4.664-11.752-8.954-13.991c-0.301-0.157-0.646-0.266-1.016-0.348
		c-4.87-4.091-16.895-12.614-25.222-18.596c-0.022-0.016-0.043-0.031-0.065-0.047c4.855-11.898,9.528-23.93,9.998-24.634
		c0.901-1.351,4.954-3.153,6.755-5.404c1.801-2.252,1.351-4.053-2.252-7.656c-2.716-2.716-24.985-8.664-35.79-11.429
		c-0.221-3.596-2.169-7.994-2.169-7.994s4.283,4.079,2.243-0.816c-2.039-4.894-3.467-9.993-11.624-14.479
		c-8.157-4.486-11.012-4.894-11.828-4.894c-0.816,0,5.71-2.855,0-3.467c-5.71-0.612-14.275,1.224-17.742,4.69
		c-3.467,3.467-4.69,6.526-4.69,6.526s-2.651-1.224-6.322,0.612c-1.245,0.622-2.582,2.653-3.776,5.166
		c-8.631-2.071-15.342-3.462-16.84-3.189c-0.602,0.109-1.558,1.523-2.77,3.908c-6.798-2.11-13.043-4.01-16.177-4.865
		c-8.973-2.447-17.13-3.467-18.558,0c-1.428,3.467,1.223,12.032,3.263,16.926c0.387,0.93,1.292,2.805,2.5,5.228
		c-17.915-3.304-36.114-5.205-54.251-6.048c-21.274-0.989-42.799-1.23-64.203-0.109c-2.723-1.495-4.994-1.382-7.234,0.429
		c-10.934,0.736-21.825,1.847-32.623,3.42c-25.541,3.721-53.036,8.942-76.018,21.323c-3.676,1.981-7.557,4.199-10.354,7.369
		c-12.737,14.435-0.015,47.392-0.015,47.392c-31.466-3.975-50.089,10.674-52.796,12.977c-7.514,3.904-13.033,11.735-11.865,23.411
		c2.331,23.306,39.287,63.925,48.943,67.588c5.479,2.078,14.063,1.797,20.468,1.166l-7.581,46.091
		c-0.337,2.047,1.243,3.908,3.318,3.908c1.333,0,2.541-0.788,3.078-2.008l22.002-50.004c0.93,0.005,1.985,0.009,3.154,0.013
		l-6.438,39.145c-0.281,1.712,1.039,3.267,2.774,3.267c1.115,0,2.124-0.659,2.573-1.679L249,307.336
		c32.245,0.024,87.397-0.045,111.878-0.079c24.675,0.035,80.509,0.104,112.64,0.079l18.224,41.418
		c0.456,1.036,1.48,1.704,2.612,1.704c1.761,0,3.102-1.579,2.816-3.317l-6.552-39.838c1.245-0.005,2.339-0.01,3.266-0.016
		l22.004,50.01c0.537,1.22,1.744,2.008,3.078,2.008c2.075,0,3.654-1.861,3.318-3.908l-7.575-46.055
		c6.361,0.605,14.719,0.836,20.092-1.202c9.655-3.662,46.612-44.282,48.943-67.588c0.863-8.633-1.933-15.158-6.483-19.555
		c1.298,0.008,2.564,0.035,3.765,0.082c9.514,0.373,20.707-1.119,23.505-4.291C607.328,213.619,610.5,214.924,609.194,209.141z
		 M504.445,300.045c-0.093,0.372-0.145,0.742-0.178,1.111l-0.923,0.032l7.337-21.201l0.237,0.222
		c-2.399,6.839-5.315,15.391-6.415,19.608C504.483,299.894,504.464,299.97,504.445,300.045z M560.666,202.505l2.85,1.222
		c-2.509,0.104-3.757-0.181-3.757-0.181l-0.018-0.034C560.066,203.157,560.378,202.819,560.666,202.505z M218.204,300.585
		l0.195,0.562l-0.122-0.004C218.26,300.957,218.236,300.772,218.204,300.585z"/>
</g>
<g id="Couch">
	<g>
		<path style="fill:#263238;stroke:#263238;stroke-miterlimit:10;" d="M209.604,321.527l-8.974,54.56
			c-0.337,2.047,1.243,3.908,3.318,3.908l0,0c1.333,0,2.541-0.788,3.078-2.008l24.504-55.69L209.604,321.527z"/>
		<path style="fill:#263238;stroke:#263238;stroke-miterlimit:10;" d="M233.246,321.527l-7.502,45.614
			c-0.281,1.712,1.039,3.267,2.774,3.267l0,0c1.115,0,2.124-0.659,2.573-1.679l20.486-46.559L233.246,321.527z"/>
		<path style="fill:#263238;stroke:#263238;stroke-miterlimit:10;" d="M513.31,321.527l8.974,54.56
			c0.337,2.047-1.243,3.908-3.318,3.908l0,0c-1.333,0-2.541-0.788-3.078-2.008l-24.504-55.69L513.31,321.527z"/>
		<path style="fill:#263238;stroke:#263238;stroke-miterlimit:10;" d="M489.555,321.527l7.616,46.303
			c0.286,1.738-1.055,3.317-2.816,3.317l0,0c-1.132,0-2.156-0.669-2.612-1.704l-20.796-47.263L489.555,321.527z"/>
		<path style="fill:#92E3A9;stroke:#263238;stroke-miterlimit:10;" d="M520.048,177.461c-9.605-10.885-28.422-15.519-41.689-19.329
			c-27.407-7.871-56.008-11.781-84.45-13.103c-34.555-1.606-69.775-1.255-104.06,3.74c-25.541,3.721-53.036,8.942-76.018,21.323
			c-3.676,1.98-7.557,4.199-10.354,7.369c-12.737,14.435-0.015,47.392-0.015,47.392l35.253,51.529h104.719h36.657H484.81
			l35.253-51.529C520.063,224.854,532.785,191.896,520.048,177.461z"/>
		<path style="fill:#92E3A9;stroke:#263238;stroke-miterlimit:10;" d="M150.309,238.142c0,0,19.035-17.598,53.153-13.288
			c0,0,19.035,11.333,41.301,45.092l-41.301,38.588L150.309,238.142z"/>
		<path style="fill:#92E3A9;stroke:#263238;stroke-miterlimit:10;" d="M572.243,238.142c0,0-19.035-17.598-53.153-13.288
			c0,0-19.035,11.333-41.302,45.092l41.302,38.588L572.243,238.142z"/>
		<path style="fill:#92E3A9;stroke:#263238;stroke-miterlimit:10;" d="M208.053,290.874c0,0-19.977-44.947-33.627-52.938
			c-13.651-7.991-37.956,0-35.625,23.306c2.331,23.306,39.287,63.925,48.943,67.588c6.691,2.538,18.02,1.558,24.345,0.717
			c4.226-0.562,7.052-4.679,6.011-8.813c-0.019-0.075-0.038-0.151-0.058-0.228C216.043,312.848,208.053,290.874,208.053,290.874z"/>
		<path style="fill:#92E3A9;stroke:#263238;stroke-miterlimit:10;" d="M514.491,290.874c0,0,19.977-44.947,33.627-52.938
			c13.651-7.991,37.956,0,35.625,23.306c-2.331,23.306-39.288,63.925-48.943,67.588c-6.692,2.538-18.02,1.558-24.345,0.717
			c-4.226-0.562-7.052-4.679-6.011-8.813c0.019-0.075,0.038-0.151,0.058-0.228C506.501,312.848,514.491,290.874,514.491,290.874z"/>
		<path style="fill:#92E3A9;stroke:#263238;stroke-miterlimit:10;" d="M517.123,274.341c-1.844-5.225-13.554-4.235-13.554-4.235
			H372.143h-22.53H218.187c0,0-11.709-0.99-13.554,4.235c-1.711,4.849,1.69,12.602,1.69,12.602l12.941,37.393
			c0,0,2.121,3.334,5.028,3.591c2.14,0.189,101.275,0.068,136.586,0.018c35.311,0.049,134.446,0.171,136.586-0.018
			c2.907-0.257,5.028-3.591,5.028-3.591l12.941-37.393C515.433,286.943,518.835,279.19,517.123,274.341z"/>
	</g>
</g>
<g id="Character">
	<g>
		<path style="fill:#A8A8A8;stroke:#263238;stroke-miterlimit:10;" d="M546.809,146.258c0,0,38.026,9.294,41.629,12.897
			c3.603,3.603,4.053,5.404,2.252,7.656c-1.802,2.252-5.855,4.053-6.755,5.404c-0.901,1.351-17.258,44.359-20.717,48.189
			c-3.459,3.83-36.93,40.082-40.983,43.685c-4.053,3.603-2.252,5.855-8.557,5.404c-6.305-0.45-6.305-3.603-6.305-3.603
			s-44.586-13.961-54.043-18.915c-9.458-4.954-18.915-9.908-19.366-13.511c-0.45-3.603,12.16-13.961,12.16-13.961
			s28.823-88.721,33.777-89.622C484.855,128.98,546.809,146.258,546.809,146.258z"/>
		<g>
			<path style="fill:#FFFFFF;stroke:#263238;stroke-miterlimit:10;" d="M209.117,250.96c0,0-7.885-1.516-20.32-9.705
				c-12.435-8.189-19.713-10.615-22.443-1.82c-2.73,8.795,8.492,18.5,14.558,22.746c6.066,4.246,27.599,6.369,29.115,6.672
				c1.516,0.303,3.273,0.439,3.273,0.439L209.117,250.96z"/>
			<g>
				<path style="fill:#263238;stroke:#263238;stroke-miterlimit:10;" d="M417.159,218.57l-15.831-11.307
					c0,0-65.584-58.153-70.107-61.384c-4.523-3.231-7.754-2.585-11.308,2.261c-3.554,4.846-36.184,81.415-36.184,81.415
					l-62.353,19.708c0,0-7.108-2.908-8.4-2.585c-1.292,0.323-6.462,3.877-6.462,3.877s0.646,7.108,1.292,10.985
					c0.646,3.877,5.492,7.754,5.492,7.754l99.83,1.292c0,0,99.83,9.369,108.876,8.723c9.046-0.646,14.886-2.126,14.886-2.126
					L417.159,218.57z M316.037,225.354l12.277-23.261l26.492,29.723L316.037,225.354z"/>
				<polyline style="fill:none;stroke:#787878;stroke-miterlimit:10;" points="362.236,232.139 383.882,233.431 390.99,209.201 				
					"/>
				<line style="fill:none;stroke:#263238;stroke-miterlimit:10;" x1="386.144" y1="205.97" x2="382.913" y2="229.877"/>
				<path style="fill:none;stroke:#787878;stroke-miterlimit:10;" d="M328.313,202.093c0,0-12.923-17.446-13.892-22.938"/>
				<path style="fill:none;stroke:#787878;stroke-miterlimit:10;" d="M309.252,186.262c0,0,3.877,5.815,11.631,8.723"/>
				<path style="fill:none;stroke:#263238;stroke-miterlimit:10;" d="M316.037,225.354c0,0-11.631-3.231-15.508-2.585
					c-3.877,0.646-16.8,6.785-16.8,6.785"/>
				<path style="fill:none;stroke:#787878;stroke-miterlimit:10;" d="M391.313,237.631c0,0,15.831,15.507,20.677,24.554"/>
				<path style="fill:none;stroke:#787878;stroke-miterlimit:10;" d="M402.62,242.477c0,0,7.754,8.077,10.984,13.892"/>
			</g>
			<g>
				<path style="fill:#FFFFFF;stroke:#263238;stroke-miterlimit:10;" d="M501.74,172.769c0,0-11.42-11.012-15.091-13.459
					c-3.671-2.447-10.808-7.342-10.808-7.342l26.715,0.408l1.835-9.993c0,0-34.464-11.012-43.437-13.459
					c-8.973-2.447-17.13-3.467-18.558,0c-1.427,3.467,1.224,12.032,3.263,16.926c2.039,4.894,18.354,35.892,18.354,35.892
					l-22.228,28.142l-28.142,7.749c0,0,4.894,24.879,10.808,37.727c5.914,12.848,12.44,21.821,12.44,21.821s4.69,1.631,6.526,1.428
					c1.835-0.204,6.73-1.428,8.769-1.835c2.039-0.408,41.602-14.887,51.391-21.005c9.789-6.118,41.602-35.28,41.602-35.28
					l2.039-3.059l24.268,10.4c0,0,31.813-7.545,29.774-10.4c-2.039-2.855-25.287-18.965-33.241-24.88
					c-7.953-5.914-13.459-8.973-17.946-9.381s-9.789-0.408-12.848,0c-3.059,0.408-10.808,0.816-10.808,0.816L501.74,172.769z"/>
				<path style="fill:none;stroke:#263238;stroke-miterlimit:10;" d="M475.841,151.968c0,0-14.071-14.887-18.762-18.15"/>
				<path style="fill:#FFFFFF;stroke:#263238;stroke-miterlimit:10;" d="M568.018,192.55c-7.953-5.914-13.459-8.973-17.946-9.381
					c-4.487-0.408-9.789-0.408-12.848,0c-3.059,0.408-10.808,0.816-10.808,0.816l-24.676-11.216c0,0-11.42-11.012-15.091-13.459
					c-2.598-1.732-6.922-4.682-9.233-6.263l-0.352-0.059l-0.49-0.517c-0.46-0.315-0.734-0.503-0.734-0.503l0.261,0.004l-2.708-2.859
					l-16.58,18.855c3.851,7.412,7.199,13.773,7.199,13.773l-22.228,28.142l-28.142,7.749c0,0,4.894,24.879,10.808,37.727
					c5.914,12.848,12.44,21.821,12.44,21.821s4.69,1.631,6.526,1.428c1.835-0.204,6.73-1.428,8.769-1.835
					c2.039-0.408,41.602-14.887,51.391-21.005c9.789-6.118,41.602-35.28,41.602-35.28l2.039-3.059l8.874,3.803
					c5.078-4.415,17.541-14.417,28.59-16.67C578.245,199.918,571.59,195.206,568.018,192.55z"/>
				<line style="fill:none;stroke:#263238;stroke-miterlimit:10;" x1="464.013" y1="181.742" x2="474.618" y2="164"/>
				<line style="fill:none;stroke:#263238;stroke-miterlimit:10;" x1="465.237" y1="178.887" x2="469.927" y2="164"/>
				<polyline style="fill:#FFFFFF;stroke:#263238;stroke-miterlimit:10;" points="539.671,217.022 547.217,217.429 531.31,220.488 
									"/>
				<path style="fill:none;stroke:#263238;stroke-miterlimit:10;" d="M519.89,199.076c0,0-10.604,9.789-18.966,13.867"/>
				<path style="fill:none;stroke:#263238;stroke-miterlimit:10;" d="M497.866,175.828c0,0-7.546,18.558-8.769,28.142"/>
				<path style="fill:none;stroke:#263238;stroke-miterlimit:10;" d="M484.469,206.006c-0.371,2.711-0.592,5.344-0.471,7.345"/>
				<path style="fill:none;stroke:#263238;stroke-miterlimit:10;" d="M487.057,192.754c0,0-1.335,5.34-2.251,11.001"/>
				<path style="fill:none;stroke:#263238;stroke-miterlimit:10;" d="M445.602,249.961c0.35,2.272,0.787,4.29,1.329,5.917"/>
				<path style="fill:none;stroke:#263238;stroke-miterlimit:10;" d="M444.678,210.579c0,0-1.113,21.153,0.464,35.819"/>
				<path style="fill:none;stroke:#263238;stroke-miterlimit:10;" d="M439.673,229.6c0,0,0.25,18.27,3.754,28.03"/>
			</g>
			<path style="fill:#FFFFFF;stroke:#263238;stroke-miterlimit:10;" d="M501.536,176.236c0,0-3.467,9.993-5.914,14.683
				c-2.447,4.69-5.098,13.051,2.447,15.906c7.545,2.855,17.946-6.73,20.597-9.177c2.651-2.447,10.808-10.604,10.808-10.604
				L501.536,176.236z"/>
			<polygon style="fill:#263238;stroke:#263238;stroke-miterlimit:10;" points="511.682,189.465 518.667,197.648 529.475,187.044 
							"/>
			<g>
				<path style="fill:#FFFFFF;stroke:#263238;stroke-miterlimit:10;" d="M495.622,152.579c0,0-2.447-1.02-3.059,4.486
					c-0.612,5.506,2.651,9.993,3.671,11.42c1.02,1.428,3.263,1.224,3.263,1.224s1.245,8.597,3.08,12.472
					c3.94,8.317,8.984,10.75,17.949,8.844c8.965-1.906,16.94-9.98,20.981-17.441c0,0,6.118-3.059,7.749-7.341
					c1.631-4.283,0.204-8.361-2.243-9.789c-2.447-1.427-2.447-1.427-2.447-1.427s3.059-5.098,2.243-8.769
					c-0.816-3.671-16.111-15.703-21.005-17.946c-4.894-2.243-10.808-3.467-14.683-1.224c-3.875,2.243-13.459,15.091-13.663,17.13
					S495.622,152.579,495.622,152.579z"/>
				<path style="fill:#263238;stroke:#263238;stroke-miterlimit:10;" d="M506.839,127.292c0,0-2.651-1.224-6.322,0.612
					c-3.671,1.835-8.157,15.907-7.341,18.558c0.816,2.651,2.039,4.487,2.039,4.487s1.835,5.506,2.651,5.71
					c0.816,0.204,0.612-8.361,0.612-8.361s-0.612,4.283,1.428,2.447c2.039-1.835,8.769-15.295,8.769-15.295
					s-0.408,3.263,2.243,0.612c2.651-2.651,2.243-6.526,2.243-6.526s14.683,12.848,17.334,11.216
					c2.651-1.631,1.835-4.079,1.835-4.079s10.808,10.808,11.624,12.644c0.816,1.835-1.224,11.012-1.428,13.255
					c-0.204,2.243,1.631-0.612,2.039-3.059c0.408-2.447,6.322-5.506,7.749-8.973c1.428-3.467-1.835-10.808-1.835-10.808
					s4.283,4.079,2.243-0.816c-2.039-4.894-3.467-9.993-11.624-14.479c-8.157-4.487-11.012-4.894-11.828-4.894
					c-0.816,0,5.71-2.855,0-3.467c-5.71-0.612-14.275,1.224-17.742,4.691C508.062,124.233,506.839,127.292,506.839,127.292z"/>
				<path style="fill:none;stroke:#263238;stroke-miterlimit:10;" d="M524.784,157.882c0,0-0.816,4.079-1.02,5.302
					c-0.204,1.224-4.894-0.816-5.914-1.02"/>
				<path style="fill:none;stroke:#263238;stroke-miterlimit:10;" d="M512.753,164.408c0,0,0.816,4.894-4.079,7.545"/>
				<path style="fill:none;stroke:#263238;stroke-miterlimit:10;" d="M512.141,169.506c0,0,3.059,2.651,7.749,2.855"/>
				<path style="fill:#263238;" d="M515.811,153.191c0,1.689-0.822,3.059-1.835,3.059c-1.014,0-1.835-1.37-1.835-3.059
					c0-1.689,0.822-3.059,1.835-3.059C514.99,150.132,515.811,151.502,515.811,153.191z"/>
				<path style="fill:#263238;" d="M532.738,157.27c-0.299,1.663-1.35,2.866-2.347,2.686c-0.998-0.179-1.564-1.673-1.266-3.335
					c0.299-1.663,1.35-2.865,2.347-2.686C532.47,154.114,533.036,155.607,532.738,157.27z"/>
				<path style="fill:none;stroke:#263238;stroke-miterlimit:10;" d="M508.266,147.073c0,0,3.875-5.71,10.604-1.224"/>
				<path style="fill:none;stroke:#263238;stroke-miterlimit:10;" d="M530.087,148.297c0,0,6.526,0,8.157,5.914"/>
				<path style="fill:none;stroke:#263238;stroke-miterlimit:10;" d="M544.566,159.513c0,0,0,7.137-2.447,11.216"/>
				<path style="fill:none;stroke:#263238;stroke-miterlimit:10;" d="M497.866,156.658c0,0-0.204,4.894,0.408,7.749"/>
			</g>
			<path style="fill:#FFFFFF;stroke:#263238;stroke-miterlimit:10;" d="M529.838,226.634c0,0,0.952-2.313,1.904-1.496
				c0.952,0.816,0.816,2.313,0.408,4.625c-0.408,2.313-0.816,5.849-0.816,5.849S528.366,232.779,529.838,226.634z"/>
			<path style="fill:#FFFFFF;stroke:#263238;stroke-miterlimit:10;" d="M555.096,215.466l4.664,8.768c0,0,4.85,1.119,14.737-1.865
				c9.887-2.985,21.453-8.768,25.743-6.529c4.291,2.239,7.648,8.208,8.954,13.991c1.306,5.783-1.865,4.477-4.664,7.648
				c-2.798,3.171-13.991,4.664-23.505,4.291c-9.514-0.373-23.132,0.56-24.064,1.306c-0.933,0.746-9.514,8.208-11.752,8.395
				c-2.239,0.187-16.976-8.581-18.095-10.26c-1.119-1.679-2.441-9.974-0.949-12.399c1.492-2.425,3.113-3.296,3.673-2.176
				c0.56,1.119-0.05,3.591,0.136,4.897c0.186,1.306,8.539,5.849,9.658,5.849c1.119,0,10.054-5.685,10.24-6.431
				c0.187-0.746-1.679-10.447-1.679-10.447S549.872,210.616,555.096,215.466z"/>
			<path style="fill:none;stroke:#263238;stroke-miterlimit:10;" d="M547.275,245.883c0,0-2.848,0.949-4.51,1.187
				c-1.661,0.237-13.766-4.747-15.651-5.86c-1.885-1.113,0.461-6.482,0.461-6.482s0.712-4.035,4.035-1.899l1.424,4.035l5.222,0.712"
				/>
			<g>
				<path style="fill:#A8A8A8;stroke:#263238;stroke-miterlimit:10;" d="M543.366,219.942c0,0-3.684-0.32-5.285,0.641
					c-1.602,0.961-9.93,12.492-10.41,14.414c-0.48,1.922,2.082,5.445,6.406,6.246c4.324,0.801,13.293,0.961,15.055,0
					c1.762-0.961,3.203-2.883,3.203-5.766c0-2.883-3.203-15.055-3.203-15.055L543.366,219.942z"/>
				<g>
					<ellipse style="fill:#92E3A9;stroke:#263238;stroke-miterlimit:10;" cx="546.853" cy="231.812" rx="2.222" ry="1.084"/>
					<g>
						<path style="fill:#FFFFFF;stroke:#263238;stroke-miterlimit:10;" d="M537.804,228.452c0,0.449-0.873,0.813-1.951,0.813
							c-1.077,0-1.951-0.364-1.951-0.813c0-0.449,0.873-0.813,1.951-0.813C536.93,227.639,537.804,228.003,537.804,228.452z"/>
						<path style="fill:#FFFFFF;stroke:#263238;stroke-miterlimit:10;" d="M543.228,228.452c0,0.449-0.873,0.813-1.951,0.813
							c-1.077,0-1.951-0.364-1.951-0.813c0-0.449,0.873-0.813,1.951-0.813C542.354,227.639,543.228,228.003,543.228,228.452z"/>
						<path style="fill:#FFFFFF;stroke:#263238;stroke-miterlimit:10;" d="M548.652,228.452c0,0.449-0.873,0.813-1.951,0.813
							c-1.077,0-1.951-0.364-1.951-0.813c0-0.449,0.873-0.813,1.951-0.813C547.778,227.639,548.652,228.003,548.652,228.452z"/>
					</g>
					<path style="fill:#263238;stroke:#263238;stroke-miterlimit:10;" d="M534.076,241.243c4.324,0.801,13.293,0.961,15.055,0
						c1.762-0.961,3.203-2.883,3.203-5.766c0-0.131-0.009-0.286-0.021-0.453c-19.15-1.702-24.643-0.027-24.643-0.027
						C527.19,236.919,529.752,240.443,534.076,241.243z"/>
				</g>
				<g>
					<ellipse style="fill:#FFFFFF;stroke:#263238;stroke-miterlimit:10;" cx="537.621" cy="225.497" rx="1.75" ry="0.729"/>
					<ellipse style="fill:#FFFFFF;stroke:#263238;stroke-miterlimit:10;" cx="542.485" cy="225.497" rx="1.75" ry="0.729"/>
					<ellipse style="fill:#FFFFFF;stroke:#263238;stroke-miterlimit:10;" cx="547.35" cy="225.497" rx="1.75" ry="0.729"/>
				</g>
			</g>
			<path style="fill:#FFFFFF;stroke:#263238;stroke-miterlimit:10;" d="M551.207,218.729c0,0-5.825,7.876-7.877,7.689
				c-2.052-0.187-3.718-0.132-2.412-3.304c1.306-3.171,4.477-9.887,4.477-9.887s1.492-2.612,4.85-1.492
				c3.358,1.119,4.85,3.731,4.477,5.037c-0.373,1.306-0.373,1.306-0.373,1.306"/>
		</g>
		<g>
			<g>
				<path style="fill:#FFFFFF;stroke:#263238;stroke-miterlimit:10;" d="M429.903,196.616c0.006-0.031,0.013-0.061,0.019-0.091
					c-0.004,0-0.008,0-0.013,0c0,0.003,0.001,0.007,0.001,0.01C429.91,196.562,429.904,196.589,429.903,196.616z"/>
			</g>
		</g>
	</g>
</g>
<g id="Popcorn">
	<g>
		<g>
			<ellipse style="fill:#A8A8A8;stroke:#263238;stroke-miterlimit:10;" cx="393.938" cy="203.454" rx="35.579" ry="9.908"/>
			<path style="fill:#FFFFFF;stroke:#263238;stroke-width:0.75;stroke-miterlimit:10;" d="M425.663,210.831
				c0.693-1.039,0.53-2.564-0.367-3.433c0.88-0.431,1.197-1.664,0.737-2.529c-0.46-0.865-1.543-1.301-2.507-1.126
				c-0.206,0.037-0.418,0.105-0.557,0.26c-0.586,0.654,0.705,1.7,0.293,2.475c-1.262-1.646-3.187-2.768-5.242-3.054
				c-0.475-0.281-0.95-0.562-1.424-0.843c-0.745-0.661,0.03-1.833,0.161-2.82c0.145-1.089-0.659-2.157-1.687-2.544
				c-1.028-0.387-2.202-0.192-3.194,0.282c-0.757-1.121-2.506-1.4-3.575-0.572c0.939,0.155,1.506-1.287,0.884-2.006
				c-0.623-0.72-1.809-0.662-2.615-0.155c-0.635-0.214-0.124-1.176-0.221-1.839c-0.136-0.935-1.452-1.023-2.371-0.806
				c-0.908-0.985-2.459-1.469-3.637-0.83c-1.177,0.639-1.508,2.56-0.42,3.341c-0.47-0.237-0.94-0.475-1.409-0.712
				c0.408-1.069,0.04-2.385-0.863-3.088c-0.903-0.703-2.269-0.736-3.205-0.077c-0.123-1.115-1.517-1.742-2.586-1.401
				c-1.068,0.341-1.794,1.344-2.224,2.38c-1.03-0.362-2.084-0.728-3.176-0.736s-2.249,0.406-2.855,1.315
				c-0.798-0.442-1.845,0.743-1.308,1.481c-1.142-0.093-2.274,0.826-2.417,1.963c-1.883-0.81-4.351,0.462-4.785,2.465
				c-1.568-0.833-3.798,0.549-3.75,2.324c-0.902-0.003-1.83,0-2.665,0.339c-0.835,0.34-1.565,1.104-1.58,2.005
				c-0.431-0.14-0.95,0.099-1.124,0.518c-0.174,0.419,0.024,0.955,0.428,1.161c-0.775,0.463-1.409,1.159-1.797,1.975
				c-0.033-0.992-1.569-1.452-2.196-0.683c-0.627,0.769,0.008,2.127,0.997,2.214c-0.305,0.281-0.61,0.563-0.915,0.844
				c-0.137-0.611-0.731-1.116-1.354-1.061c-0.623,0.055-1.134,0.752-0.921,1.34c0.235,0.648,0.897,0.98,1.137,1.649
				c0.296,0.826,0.022,1.852,0.315,2.729c0.255,0.764,0.789,1.478,1.548,1.748c0.564,0.201,1.187,0.139,1.773,0.261
				c0.728,0.152,1.373,0.58,2.097,0.749c1.365,0.319,1.941-0.723,3.061-0.825c1.485-0.135,2.602,0.828,4.266,0.205
				c0.582,1.507,2.665,2.191,4.027,1.323c1.996,1.193,4.472,1.122,6.795,1.016c1.103-0.051,2.352-0.173,3.029-1.045
				c0.701-0.902,0.47-2.19,0.205-3.301c0.509-0.5,1.398-0.99,1.832-0.423c0.149,0.194,0.172,0.453,0.219,0.693
				c0.245,1.263,1.343,2.314,2.616,2.502c1.273,0.188,2.628-0.5,3.228-1.638c0.762-0.123,1.391,0.537,2.009,1
				c0.618,0.463,1.701,0.646,2.002-0.065c0.588,0.782,1.196,1.582,2.026,2.1c0.83,0.518,1.946,0.697,2.781,0.186
				c0.429,0.835,1.962,0.577,2.094-0.352c1.296,0.738,3.125,0.319,3.971-0.909c0.47,0.794,1.43,1.267,2.346,1.158
				c0.916-0.109,1.737-0.795,2.008-1.677c0.729,0.844,2.384-0.738,3.126,0.094c0.211,0.237,0.233,0.584,0.369,0.871
				c0.279,0.591,1.112,0.838,1.664,0.488c0.358-0.227,0.559-0.627,0.744-1.008c0.423-0.872,0.846-1.745,1.269-2.617
				c0.877,0.592,2.182,0.426,2.882-0.367C426.355,212.943,426.359,211.627,425.663,210.831z"/>
			<path style="fill:#A8A8A8;stroke:#263238;stroke-miterlimit:10;" d="M393.938,213.362c-19.004,0-34.526-4.149-35.525-9.372
				c0.015,2.711,1.7,6.178,2.633,8.667c1.172,3.124,2.529,6.18,4.06,9.144c1.679,3.251,3.65,6.483,6.607,8.637
				c2.663,1.939,5.927,2.857,9.158,3.497c8.706,1.726,17.756,1.697,26.451-0.085c3.38-0.693,6.792-1.689,9.553-3.758
				c2.879-2.159,4.831-5.32,6.458-8.529c2.727-5.376,4.73-11.115,5.964-17.016C427.343,209.505,412.261,213.362,393.938,213.362z"/>
			<circle style="fill:#FFFFFF;stroke:#263238;stroke-width:0.75;stroke-miterlimit:10;" cx="401.614" cy="202.657" r="2.158"/>
			<path style="fill:#FFFFFF;stroke:#263238;stroke-width:0.75;stroke-miterlimit:10;" d="M388.937,202.657
				c0,0.447-0.362,0.809-0.809,0.809s-0.809-0.362-0.809-0.809s0.362-0.809,0.809-0.809S388.937,202.21,388.937,202.657z"/>
			<circle style="fill:#FFFFFF;stroke:#263238;stroke-width:0.75;stroke-miterlimit:10;" cx="393.927" cy="197.127" r="1.484"/>
			<path style="fill:#FFFFFF;stroke:#263238;stroke-width:0.75;stroke-miterlimit:10;" d="M396.759,207.916
				c0,0.67-0.543,1.214-1.214,1.214c-0.67,0-1.214-0.544-1.214-1.214c0-0.67,0.543-1.214,1.214-1.214
				C396.215,206.702,396.759,207.246,396.759,207.916z"/>
			<path style="fill:#FFFFFF;stroke:#263238;stroke-width:0.75;stroke-miterlimit:10;" d="M382.193,205.893
				c0,1.043-0.845,1.888-1.888,1.888c-1.043,0-1.888-0.845-1.888-1.888c0-1.043,0.845-1.888,1.888-1.888
				C381.348,204.005,382.193,204.851,382.193,205.893z"/>
			<path style="fill:#FFFFFF;stroke:#263238;stroke-width:0.75;stroke-miterlimit:10;" d="M409.166,204.005
				c0,0.596-0.483,1.079-1.079,1.079c-0.596,0-1.079-0.483-1.079-1.079c0-0.596,0.483-1.079,1.079-1.079
				C408.683,202.926,409.166,203.409,409.166,204.005z"/>
			<path style="fill:#FFFFFF;stroke:#263238;stroke-width:0.75;stroke-miterlimit:10;" d="M413.751,200.229
				c0,0.447-0.362,0.809-0.809,0.809s-0.809-0.362-0.809-0.809s0.362-0.809,0.809-0.809S413.751,199.782,413.751,200.229z"/>
			<path style="fill:#FFFFFF;stroke:#263238;stroke-width:0.75;stroke-miterlimit:10;" d="M419.955,207.781
				c0,0.745-0.604,1.349-1.349,1.349s-1.349-0.604-1.349-1.349c0-0.745,0.604-1.349,1.349-1.349S419.955,207.037,419.955,207.781z"
				/>
			<circle style="fill:#FFFFFF;stroke:#263238;stroke-width:0.75;stroke-miterlimit:10;" cx="407.952" cy="210.074" r="1.753"/>
			<path style="fill:#FFFFFF;stroke:#263238;stroke-width:0.75;stroke-miterlimit:10;" d="M371.674,207.512
				c0,0.894-0.725,1.618-1.618,1.618s-1.618-0.725-1.618-1.618s0.724-1.618,1.618-1.618S371.674,206.618,371.674,207.512z"/>
			<path style="fill:#FFFFFF;stroke:#263238;stroke-width:0.75;stroke-miterlimit:10;" d="M383.542,199.555
				c0,0.67-0.543,1.214-1.214,1.214c-0.67,0-1.214-0.543-1.214-1.214c0-0.67,0.543-1.214,1.214-1.214
				C382.999,198.341,383.542,198.884,383.542,199.555z"/>
			<circle style="fill:#FFFFFF;stroke:#263238;stroke-width:0.75;stroke-miterlimit:10;" cx="389.046" cy="193.582" r="2.588"/>
		</g>
		<path style="fill:#FFFFFF;stroke:#263238;stroke-width:0.75;stroke-miterlimit:10;" d="M428.047,232.731
			c0,0.968-0.785,1.753-1.753,1.753s-1.753-0.785-1.753-1.753c0-0.968,0.785-1.753,1.753-1.753S428.047,231.763,428.047,232.731z"/>
		<path style="fill:#FFFFFF;stroke:#263238;stroke-width:0.75;stroke-miterlimit:10;" d="M423.731,243.79
			c0,0.521-0.423,0.944-0.944,0.944c-0.521,0-0.944-0.423-0.944-0.944c0-0.521,0.423-0.944,0.944-0.944
			C423.309,242.846,423.731,243.269,423.731,243.79z"/>
		<path style="fill:#FFFFFF;stroke:#263238;stroke-width:0.75;stroke-miterlimit:10;" d="M440.724,225.718
			c0,0.521-0.423,0.944-0.944,0.944c-0.521,0-0.944-0.423-0.944-0.944c0-0.521,0.423-0.944,0.944-0.944
			C440.302,224.774,440.724,225.197,440.724,225.718z"/>
	</g>
</g>
<g id="Table">
	<g>
		<polygon style="fill:#FFFFFF;stroke:#263238;stroke-miterlimit:10;" points="606.224,460.646 153.919,460.646 199.149,413.707 
			560.994,413.707 		"/>
		<line style="fill:none;stroke:#263238;stroke-miterlimit:10;" x1="166.885" y1="473.87" x2="166.885" y2="488.831"/>
		<line style="fill:none;stroke:#263238;stroke-miterlimit:10;" x1="591.949" y1="473.87" x2="591.949" y2="488.831"/>
		
			<rect x="153.919" y="460.646" style="fill:#263238;stroke:#263238;stroke-linecap:round;stroke-linejoin:round;stroke-miterlimit:10;" width="452.16" height="13.684"/>
	</g>
</g>
<g id="TV">
	<g>
		<path style="fill:#263238;stroke:#263238;stroke-miterlimit:10;" d="M258.106,426.675l-4.634,19.892
			c-0.174,0.746,0.642,1.425,1.713,1.425l0,0c0.689,0,1.312-0.287,1.589-0.732l12.655-20.304L258.106,426.675z"/>
		<path style="fill:#263238;stroke:#263238;stroke-miterlimit:10;" d="M504.308,426.675l4.635,19.892
			c0.174,0.746-0.642,1.425-1.713,1.425l0,0c-0.689,0-1.312-0.287-1.59-0.732l-12.655-20.304L504.308,426.675z"/>
		<rect x="238.658" y="266.178" style="fill:#263238;stroke:#263238;stroke-miterlimit:10;" width="285.192" height="167.286"/>
		<rect x="248.066" y="272.921" style="fill:#4D575C;stroke:#263238;stroke-miterlimit:10;" width="266.375" height="153.801"/>
		<rect x="318.243" y="313.44" style="fill:#263238;stroke:#263238;stroke-miterlimit:10;" width="126.021" height="72.762"/>
		<line style="fill:none;stroke:#263238;stroke-miterlimit:10;" x1="248.066" y1="272.921" x2="318.243" y2="313.44"/>
		<line style="fill:none;stroke:#263238;stroke-miterlimit:10;" x1="514.442" y1="272.921" x2="444.265" y2="313.44"/>
		<line style="fill:none;stroke:#263238;stroke-miterlimit:10;" x1="318.243" y1="386.202" x2="248.066" y2="426.721"/>
		<line style="fill:none;stroke:#263238;stroke-miterlimit:10;" x1="444.265" y1="386.202" x2="514.442" y2="426.721"/>
		<rect x="418.867" y="414.482" style="fill:#263238;stroke:#263238;stroke-miterlimit:10;" width="53.77" height="7.834"/>
	</g>
</g>
</svg>
