<?xml version="1.0" encoding="utf-8"?>
<!-- Generator: Adobe Illustrator 27.5.0, SVG Export Plug-In . SVG Version: 6.00 Build 0)  -->
<svg version="1.1" xmlns="http://www.w3.org/2000/svg" xmlns:xlink="http://www.w3.org/1999/xlink" x="0px" y="0px"
	 viewBox="0 0 500 500" style="enable-background:new 0 0 500 500;" xml:space="preserve">
<g id="Background_Simple">
	<g>
		<path style="fill:#C6FF00;" d="M167.186,74.918c0,0-75.766,38.605-113.558,98.099c-37.792,59.494-34.8,135.954,11.123,192.781
			c45.923,56.827,133.693,49.339,207.177,85.319c73.484,35.979,154.576,28.577,189.321-47.661
			c34.745-76.238-17.645-104.716-26.652-192.935C425.59,122.301,346.067-6.883,167.186,74.918z"/>
		<path style="opacity:0.7;fill:#FFFFFF;" d="M167.186,74.918c0,0-75.766,38.605-113.558,98.099
			c-37.792,59.494-34.8,135.954,11.123,192.781c45.923,56.827,133.693,49.339,207.177,85.319
			c73.484,35.979,154.576,28.577,189.321-47.661c34.745-76.238-17.645-104.716-26.652-192.935
			C425.59,122.301,346.067-6.883,167.186,74.918z"/>
	</g>
</g>
<g id="Clock">
	<g>
		
			<ellipse transform="matrix(0.9198 -0.3924 0.3924 0.9198 -124.2389 196.2501)" style="fill:none;stroke:#263238;stroke-linecap:round;stroke-linejoin:round;stroke-miterlimit:10;" cx="417.915" cy="402.018" rx="40.982" ry="40.982"/>
		
			<circle style="fill:none;stroke:#263238;stroke-linecap:round;stroke-linejoin:round;stroke-miterlimit:10;" cx="417.915" cy="402.018" r="37.493"/>
		<path style="fill:none;stroke:#263238;stroke-linecap:round;stroke-linejoin:round;stroke-miterlimit:10;" d="M420.247,402.018
			c0,1.288-1.044,2.332-2.332,2.332c-1.288,0-2.331-1.044-2.331-2.332c0-1.288,1.044-2.332,2.331-2.332
			C419.203,399.686,420.247,400.73,420.247,402.018z"/>
		
			<line style="fill:none;stroke:#263238;stroke-linecap:round;stroke-linejoin:round;stroke-miterlimit:10;" x1="417.915" y1="404.349" x2="417.915" y2="429.077"/>
		
			<line style="fill:none;stroke:#263238;stroke-linecap:round;stroke-linejoin:round;stroke-miterlimit:10;" x1="415.584" y1="402.018" x2="403.108" y2="402.018"/>
	</g>
</g>
<g id="Gears">
	<path style="fill:#C6FF00;" d="M334.802,271.753v-21.176l-22.06-2.512c-0.659-4.309-1.706-8.489-3.074-12.525l18.377-13.45
		l-10.74-18.339l-20.4,8.707c-2.727-3.357-5.736-6.477-8.999-9.327l9.1-20.72l-18.602-10.588l-13.242,17.585
		c-4.026-1.553-8.21-2.795-12.535-3.659l-2.625-22.401h-21.48l-2.548,21.748c-4.37,0.649-8.611,1.682-12.704,3.03l-13.643-18.117
		l-18.602,10.588l8.832,20.111c-3.405,2.688-6.57,5.655-9.461,8.871l-21.017-8.971l-10.74,18.339l17.838,13.055
		c-1.576,3.969-2.835,8.094-3.711,12.358l-22.723,2.588v21.176l22.06,2.512c0.659,4.309,1.706,8.489,3.074,12.525l-18.377,13.45
		l10.74,18.339l20.4-8.707c2.727,3.357,5.736,6.477,8.999,9.327l-9.1,20.72l18.602,10.588l13.242-17.585
		c4.026,1.553,8.21,2.795,12.536,3.659l2.625,22.401h21.48l2.548-21.748c4.37-0.649,8.611-1.682,12.704-3.03l13.643,18.117
		l18.602-10.588l-8.833-20.112c3.405-2.688,6.571-5.655,9.461-8.871l21.018,8.971l10.74-18.339l-17.838-13.055
		c1.575-3.969,2.835-8.094,3.711-12.358L334.802,271.753z M237.422,309.713c-28.213,0-51.084-22.547-51.084-50.361
		c0-27.814,22.871-50.361,51.084-50.361s51.084,22.547,51.084,50.361C288.506,287.166,265.635,309.713,237.422,309.713z"/>
	<path style="fill:#C6FF00;" d="M429.914,165.99v-13.685l-14.256-1.623c-0.426-2.784-1.102-5.486-1.987-8.094l11.876-8.692
		l-6.941-11.852l-13.184,5.627c-1.762-2.169-3.707-4.186-5.816-6.028l5.881-13.39l-12.022-6.842l-8.558,11.365
		c-2.602-1.004-5.306-1.806-8.101-2.365l-1.696-14.477H361.23l-1.647,14.054c-2.824,0.42-5.565,1.087-8.21,1.959l-8.817-11.708
		l-12.022,6.842l5.708,12.997c-2.201,1.737-4.246,3.655-6.114,5.733l-13.583-5.797l-6.941,11.851l11.528,8.437
		c-1.018,2.565-1.832,5.23-2.398,7.986l-14.685,1.672v13.685l14.256,1.624c0.426,2.784,1.102,5.486,1.987,8.094l-11.876,8.692
		l6.941,11.852l13.184-5.627c1.762,2.169,3.707,4.186,5.816,6.028l-5.881,13.39l12.022,6.842l8.558-11.365
		c2.602,1.004,5.306,1.806,8.101,2.365l1.696,14.477h13.881l1.647-14.055c2.824-0.42,5.565-1.087,8.21-1.958l8.817,11.708
		l12.022-6.842l-5.708-12.997c2.201-1.737,4.246-3.655,6.114-5.733l13.583,5.797l6.941-11.851l-11.528-8.437
		c1.018-2.565,1.832-5.23,2.398-7.986L429.914,165.99z M366.982,190.521c-18.233,0-33.014-14.572-33.014-32.546
		c0-17.975,14.781-32.546,33.014-32.546c18.233,0,33.013,14.572,33.013,32.546C399.996,175.95,385.215,190.521,366.982,190.521z"/>
</g>
<g id="Clouds">
	<g>
		<g>
			<g>
				<path style="fill:none;stroke:#263238;stroke-linecap:round;stroke-linejoin:round;stroke-miterlimit:10;" d="M262.831,68.182
					c-5.733-3.127-8.339-0.521-10.424-3.127c-2.085-2.606,5.733-9.382-9.903-16.158c0,0-1.042-14.593-22.412-15.115
					c-21.369-0.521-15.636,14.594-21.369,18.242c-5.733,3.649-7.297-2.085-13.03,1.564c-5.734,3.649-3.127,10.946-7.818,11.988
					c-4.691,1.042-10.945-4.691-16.679-1.042c-5.733,3.648-5.733,6.775-8.339,6.775c-2.606,0-7.819-2.084-10.946,0
					c-3.127,2.085-6.775,4.691-6.775,4.691H267C267,76,268.564,71.309,262.831,68.182z"/>
			</g>
		</g>
		<path style="fill:none;stroke:#263238;stroke-linecap:round;stroke-linejoin:round;stroke-miterlimit:10;" d="M184.824,66.041
			c-0.619,0.357-1.381,0.721-2.326,1.099"/>
		<path style="fill:none;stroke:#263238;stroke-linecap:round;stroke-linejoin:round;stroke-miterlimit:10;" d="M213.034,41.694
			c0,0-4.135,1.59-5.089,6.362c-0.954,4.771-3.181,7.952-5.725,8.27c-2.545,0.318-12.087-0.636-13.678,2.863
			c-0.559,1.229-0.686,2.262-0.891,3.195"/>
	</g>
	<g>
		<g>
			<g>
				<path style="fill:none;stroke:#263238;stroke-linecap:round;stroke-linejoin:round;stroke-miterlimit:10;" d="M302.528,98.574
					c-3.163-1.725-4.601-0.288-5.752-1.725c-1.15-1.438,3.163-5.177-5.464-8.915c0,0-0.575-8.052-12.366-8.34
					c-11.791-0.288-8.628,8.053-11.791,10.065c-3.164,2.013-4.026-1.15-7.19,0.863c-3.164,2.013-1.726,6.04-4.314,6.615
					c-2.588,0.575-6.039-2.588-9.203-0.575c-3.163,2.013-3.163,3.738-4.601,3.738c-1.438,0-4.314-1.15-6.04,0
					c-1.725,1.15-3.738,2.588-3.738,2.588h72.759C304.829,102.888,305.691,100.3,302.528,98.574z"/>
			</g>
		</g>
		<path style="fill:none;stroke:#263238;stroke-linecap:round;stroke-linejoin:round;stroke-miterlimit:10;" d="M259.487,97.393
			c-0.341,0.197-0.762,0.398-1.284,0.607"/>
		<path style="fill:none;stroke:#263238;stroke-linecap:round;stroke-linejoin:round;stroke-miterlimit:10;" d="M275.052,83.959
			c0,0-2.282,0.878-2.808,3.51c-0.527,2.633-1.755,4.388-3.159,4.563c-1.404,0.175-6.669-0.351-7.547,1.579
			c-0.308,0.678-0.378,1.248-0.492,1.763"/>
	</g>
	<g>
		<g>
			<g>
				<path style="fill:none;stroke:#263238;stroke-linecap:round;stroke-linejoin:round;stroke-miterlimit:10;" d="M135.188,168.51
					c-4.026-2.196-5.856-0.366-7.32-2.196c-1.464-1.83,4.026-6.589-6.954-11.347c0,0-0.732-10.248-15.739-10.614
					c-15.007-0.366-10.98,10.248-15.007,12.81c-4.026,2.562-5.124-1.464-9.151,1.098c-4.026,2.562-2.196,7.687-5.49,8.419
					c-3.294,0.732-7.686-3.294-11.712-0.732c-4.026,2.562-4.026,4.758-5.856,4.758c-1.83,0-5.49-1.464-7.687,0
					C48.076,172.17,45.514,174,45.514,174h92.602C138.116,174,139.214,170.706,135.188,168.51z"/>
			</g>
		</g>
		<path style="fill:none;stroke:#263238;stroke-linecap:round;stroke-linejoin:round;stroke-miterlimit:10;" d="M80.408,167.006
			c-0.434,0.251-0.97,0.507-1.634,0.772"/>
		<path style="fill:none;stroke:#263238;stroke-linecap:round;stroke-linejoin:round;stroke-miterlimit:10;" d="M100.218,149.908
			c0,0-2.904,1.117-3.574,4.467c-0.67,3.351-2.234,5.584-4.021,5.808c-1.787,0.223-8.488-0.447-9.605,2.01
			c-0.392,0.863-0.481,1.588-0.626,2.244"/>
	</g>
	<g>
		<g>
			<g>
				<path style="fill:none;stroke:#263238;stroke-linecap:round;stroke-linejoin:round;stroke-miterlimit:10;" d="M430.89,299.509
					c-4.026-2.196-5.856-0.366-7.32-2.196c-1.464-1.83,4.026-6.589-6.954-11.347c0,0-0.732-10.248-15.739-10.614
					c-15.007-0.366-10.98,10.249-15.007,12.81c-4.026,2.562-5.124-1.464-9.151,1.098c-4.026,2.562-2.196,7.687-5.49,8.419
					c-3.294,0.732-7.686-3.294-11.712-0.732c-4.026,2.562-4.026,4.758-5.856,4.758s-5.491-1.464-7.687,0
					c-2.196,1.464-4.758,3.294-4.758,3.294h92.602C433.818,304.999,434.916,301.705,430.89,299.509z"/>
			</g>
		</g>
		<path style="fill:none;stroke:#263238;stroke-linecap:round;stroke-linejoin:round;stroke-miterlimit:10;" d="M376.11,298.005
			c-0.434,0.251-0.97,0.507-1.634,0.772"/>
		<path style="fill:none;stroke:#263238;stroke-linecap:round;stroke-linejoin:round;stroke-miterlimit:10;" d="M395.92,280.907
			c0,0-2.904,1.117-3.574,4.467c-0.67,3.351-2.234,5.584-4.021,5.808c-1.787,0.223-8.488-0.447-9.605,2.01
			c-0.392,0.863-0.481,1.588-0.626,2.244"/>
	</g>
</g>
<g id="Graphic">
	<path style="fill:#263238;" d="M452.538,227.042c-0.011-2.27-2.475-3.676-4.435-2.532l-42.427,24.771
		c-1.96,1.144-1.946,3.981,0.025,5.106l15.465,8.829l-54.708,91.717l-53.755-16.399c-3.066-0.936-6.378,0.332-8.035,3.077
		l-60.009,99.39l-64.811-48.381c-1.823-1.361-4.194-1.753-6.355-1.046l-132,43c-3.676,1.197-5.685,5.148-4.488,8.823
		c1.198,3.677,5.149,5.689,8.824,4.487l128.551-41.876l68.093,50.83c1.219,0.91,2.69,1.391,4.188,1.391
		c0.448,0,0.897-0.043,1.344-0.13c1.939-0.38,3.628-1.561,4.648-3.252l61.182-101.331l53.783,16.408
		c3.078,0.938,6.404-0.343,8.055-3.109l57.655-96.656l15.04,8.586c1.971,1.125,4.421-0.305,4.41-2.575L452.538,227.042z"/>
</g>
<g id="Character">
	<g>
		<g>
			<g>
				<defs>
					<path id="XMLID_5_" d="M165.689,306.258c0,0-8.726,18.076-10.596,30.854c-1.87,12.778-12.466,35.528-12.466,35.528
						s-9.35,3.74-9.661,6.856c-0.312,3.117-2.805,12.778-2.805,12.778l1.558,0.935l4.051-9.661c0,0,1.87,6.856,2.493,9.661
						c0.623,2.805,1.247,3.74,1.247,3.74s8.103,4.052,9.973,4.675s4.675,0.312,3.428-2.182c-1.247-2.493-5.921-7.791-5.921-7.791
						l2.805-16.518c0,0,39.58-66.694,40.827-69.499s-8.103-10.908-8.103-10.908L165.689,306.258z"/>
				</defs>
				<use xlink:href="#XMLID_5_"  style="overflow:visible;fill:#FFFFFF;"/>
				<clipPath id="XMLID_00000104699015803347409140000017735644187577829771_">
					<use xlink:href="#XMLID_5_"  style="overflow:visible;"/>
				</clipPath>
				<path style="opacity:0.2;clip-path:url(#XMLID_00000104699015803347409140000017735644187577829771_);" d="M143.5,381
					c0,0,35.509-67.143,35-74c-0.182-2.448-1.766-4.867-3.725-6.969l-9.087,6.226c0,0-8.726,18.076-10.596,30.854
					c-1.87,12.778-12.466,35.529-12.466,35.529s-9.35,3.74-9.661,6.856c-0.312,3.117-2.805,12.778-2.805,12.778l1.558,0.935
					l4.052-9.661c0,0,1.87,6.856,2.493,9.661c0.623,2.805,1.247,3.74,1.247,3.74s1.971,0.985,4.193,2.059
					C143.223,391.834,143.5,381,143.5,381z"/>
				
					<use xlink:href="#XMLID_5_"  style="overflow:visible;fill:none;stroke:#263238;stroke-linecap:round;stroke-linejoin:round;stroke-miterlimit:10;"/>
			</g>
			<path style="fill:#263238;stroke:#263238;stroke-linecap:round;stroke-linejoin:round;stroke-miterlimit:10;" d="
				M147.919,392.728c-3.508,1.585-5.026-0.591-6.539-5.129c-1.205-3.615-3.707-9.449-4.783-11.917
				c-1.879,1.18-3.505,2.547-3.631,3.814c-0.312,3.116-2.805,12.778-2.805,12.778l1.558,0.935l4.052-9.661
				c0,0,1.87,6.856,2.493,9.661c0.623,2.805,1.247,3.74,1.247,3.74s8.103,4.052,9.973,4.675s4.675,0.312,3.428-2.182
				C152.013,397.647,149.346,394.407,147.919,392.728z"/>
		</g>
		<path style="fill:#BABABA;stroke:#263238;stroke-linecap:round;stroke-linejoin:round;stroke-miterlimit:10;" d="M93.96,194.006
			l-8.247,9.093c-1.727,1.904-1.734,4.807-0.016,6.719l12.315,13.709l8.683-17.945L93.96,194.006z"/>
		<g>
			<defs>
				<path id="XMLID_3_" d="M118.851,169.115l-29.522,25.18l15.05,13.024l16.208-34.152
					C120.588,173.167,121.166,169.694,118.851,169.115z"/>
			</defs>
			<use xlink:href="#XMLID_3_"  style="overflow:visible;fill:#C6FF00;"/>
			<clipPath id="XMLID_00000044880405013499937670000007490532492678784386_">
				<use xlink:href="#XMLID_3_"  style="overflow:visible;"/>
			</clipPath>
			<path style="opacity:0.2;clip-path:url(#XMLID_00000044880405013499937670000007490532492678784386_);" d="M118.851,169.115
				l-29.522,25.18l15.05,13.024l16.208-34.152C120.588,173.167,121.166,169.694,118.851,169.115z"/>
			
				<use xlink:href="#XMLID_3_"  style="overflow:visible;fill:none;stroke:#263238;stroke-linecap:round;stroke-linejoin:round;stroke-miterlimit:10;"/>
		</g>
		<g>
			<path style="fill:#FFFFFF;stroke:#263238;stroke-linecap:round;stroke-linejoin:round;stroke-miterlimit:10;" d="M157.924,99.942
				c0,0,5.789,4.341,6.367,5.499c0.579,1.158,2.316,6.078,3.184,6.657c0.868,0.579,6.078-0.289,6.078,2.026
				c0,2.315-2.315,5.788-2.315,5.788s2.026,6.367,2.026,9.551c0,3.184,0.868,8.972-2.894,10.13
				c-3.762,1.158-13.024,2.894-13.024,2.894l-8.683,26.338l-15.05-11.577l1.737-13.024c0,0-4.052-4.341-7.815-15.629
				c-3.763-11.288-1.158-21.996,5.789-25.759C140.269,99.074,157.924,99.942,157.924,99.942z"/>
			<path style="fill:#263238;" d="M164.204,113.424c0.453,1.023,0.406,2.036-0.105,2.263c-0.511,0.227-1.294-0.419-1.747-1.442
				c-0.453-1.023-0.406-2.036,0.105-2.263C162.969,111.756,163.751,112.401,164.204,113.424z"/>
			<path style="fill:none;stroke:#263238;stroke-linecap:round;stroke-linejoin:round;stroke-miterlimit:10;" d="M158.792,111.809
				c0,0,2.894-3.473,5.21-2.315"/>
			<path style="opacity:0.2;" d="M150.171,133.256c0,0,22.553,5.074,19.734,5.074c-2.819,0-14.378,3.101-14.378,3.101
				l-10.149,23.681l-9.585-9.303l0.564-11.559L150.171,133.256z"/>
		</g>
		<path style="fill:#263238;stroke:#263238;stroke-linecap:round;stroke-linejoin:round;stroke-miterlimit:10;" d="M159.081,98.495
			c0,0-7.236,37.336-12.445,43.993c-5.21,6.657-14.471,5.21-22.865,1.158c-8.393-4.052-10.709-3.473-10.709-7.814
			s11.577-32.995,13.893-34.731C129.27,99.363,155.319,92.417,159.081,98.495z"/>
		<path style="fill:#263238;stroke:#263238;stroke-linecap:round;stroke-linejoin:round;stroke-miterlimit:10;" d="M117.114,126.569
			c0,0-6.367-5.499-11.866-3.473s-6.367,11.288-5.499,14.182c0.868,2.894,8.683,6.657,12.156,6.657c3.473,0,6.946-4.631,7.236-8.393
			C119.43,131.779,117.983,127.727,117.114,126.569z"/>
		<g>
			<g>
				<defs>
					<path id="XMLID_6_" d="M101.775,323.959c0,0-33.284,53.544-35.021,55.859c-1.737,2.315-6.367,4.341-8.683,5.499
						c-2.315,1.158-14.471,11.867-14.471,11.867l1.158,0.868l9.551-4.92c0,0,1.158,4.052,0,8.393s-1.158,6.946,0,8.683
						c1.158,1.737,8.683,8.393,10.419,6.946c1.736-1.447-0.579-9.551-0.579-9.551s6.657-15.34,7.236-17.076
						c0.579-1.737,2.315-6.367,2.315-6.367s46.019-43.704,50.65-49.492c4.631-5.789,4.92-6.946,5.789-10.998
						c0.868-4.052,0.868-9.262,0.868-9.262L101.775,323.959z"/>
				</defs>
				<use xlink:href="#XMLID_6_"  style="overflow:visible;fill:#FFFFFF;"/>
				<clipPath id="XMLID_00000048492863976519548490000005584362868229557387_">
					<use xlink:href="#XMLID_6_"  style="overflow:visible;"/>
				</clipPath>
				<path style="opacity:0.2;clip-path:url(#XMLID_00000048492863976519548490000005584362868229557387_);" d="M116,319.311
					l-14.225,4.648c0,0-33.284,53.544-35.021,55.859c-1.737,2.315-6.367,4.341-8.683,5.499
					c-2.315,1.158-14.471,11.867-14.471,11.867l1.158,0.868l9.551-4.92c0,0,1.158,4.052,0,8.393s-1.158,6.946,0,8.683
					c0.645,0.968,3.268,3.462,5.764,5.232c-0.587-2.599-0.929-5.304-0.573-7.44c1-6,5.5-20,5.5-20l51-68V319.311z"/>
				
					<use xlink:href="#XMLID_6_"  style="overflow:visible;fill:none;stroke:#263238;stroke-linecap:round;stroke-linejoin:round;stroke-miterlimit:10;"/>
			</g>
			<path style="fill:#263238;stroke:#263238;stroke-linecap:round;stroke-linejoin:round;stroke-miterlimit:10;" d="M58.071,404.998
				c-1.196-1.914,0.772-15.692,1.489-20.409c-0.553,0.27-1.061,0.514-1.489,0.728c-2.315,1.158-14.471,11.867-14.471,11.867
				l1.158,0.868l9.551-4.92c0,0,1.158,4.052,0,8.393s-1.158,6.946,0,8.683c1.158,1.736,8.683,8.393,10.419,6.946
				c1.737-1.447-0.579-9.551-0.579-9.551S59.519,407.314,58.071,404.998z"/>
		</g>
		<g>
			<path style="fill:#263238;stroke:#263238;stroke-linecap:round;stroke-linejoin:round;stroke-miterlimit:10;" d="M98.012,223.527
				c0,0-10.998,18.523-11.577,26.048c-0.579,7.525,6.946,28.653,6.946,28.653l7.236,47.177c0,0,41.967-9.551,56.728-15.05
				c14.761-5.499,27.785-15.918,27.785-15.918l-42.256-45.151l-1.736-13.024L98.012,223.527z"/>
			
				<line style="fill:none;stroke:#808080;stroke-linecap:round;stroke-linejoin:round;stroke-miterlimit:10;" x1="119" y1="253" x2="138.932" y2="290.935"/>
			<path style="fill:none;stroke:#808080;stroke-linecap:round;stroke-linejoin:round;stroke-miterlimit:10;" d="M105.498,242.713
				c0,0,5.787,0.643,12.216,6.43"/>
		</g>
		<g>
			<defs>
				<path id="XMLID_1_" d="M128.402,157.538c0,0-10.419,9.262-12.445,14.761c-2.026,5.499-21.996,47.177-22.575,49.203
					c-0.579,2.026,7.814,12.156,13.314,13.603c5.499,1.447,34.152,6.078,37.336,3.473c3.184-2.605,10.998-25.18,11.288-29.811
					c0.289-4.631-5.788-35.6-5.788-35.6L128.402,157.538z"/>
			</defs>
			<use xlink:href="#XMLID_1_"  style="overflow:visible;fill:#C6FF00;"/>
			<clipPath id="XMLID_00000122693996707727993970000013196921014735774098_">
				<use xlink:href="#XMLID_1_"  style="overflow:visible;"/>
			</clipPath>
			<path style="opacity:0.2;clip-path:url(#XMLID_00000122693996707727993970000013196921014735774098_);" d="M124.516,184.846
				c0,0,11.558,32.138,11.84,34.393c0.282,2.255-8.739,9.021-15.505,11.558c-6.766,2.537-9.303-3.101-12.686-3.947
				c-2.878-0.719-10.02-0.42-12.095-0.314c2.813,3.543,7.257,7.682,10.624,8.568c4.561,1.2,25.041,4.587,33.714,4.222
				c1.508-1.96,7.167-9.837,10.325-21.497C154.399,204.298,124.516,184.846,124.516,184.846z"/>
			
				<use xlink:href="#XMLID_1_"  style="overflow:visible;fill:none;stroke:#263238;stroke-linecap:round;stroke-linejoin:round;stroke-miterlimit:10;"/>
		</g>
		<polygon style="fill:#C6FF00;stroke:#263238;stroke-linecap:round;stroke-linejoin:round;stroke-miterlimit:10;" points="
			131.296,150.013 154.74,168.826 150.688,179.245 126.955,157.249 		"/>
		<g>
			<g>
				<defs>
					<path id="XMLID_4_" d="M169.501,207.03l0.912-0.35l40.303-14.699c0,0,2.605-8.393,3.473-10.998
						c0.868-2.605,2.605-2.894,3.473-3.184c0.868-0.289,4.052-0.289,4.052-0.289h2.605c0,0,4.92-1.447,6.078,0.289
						c1.158,1.737,0,6.367,0,6.367s0,6.946-1.158,8.683c-1.158,1.737-4.92,3.184-6.946,4.052s-4.92,1.447-4.92,1.447
						s-44.399,27.784-47.583,29.231c-3.184,1.447-3.763,2.605-6.367,0.579c-2.605-2.026-5.499-5.499-5.499-5.499l6.657-17.366
						L169.501,207.03z"/>
				</defs>
				<use xlink:href="#XMLID_4_"  style="overflow:visible;fill:#FFFFFF;"/>
				<clipPath id="XMLID_00000096782252262452716620000004237190466544732054_">
					<use xlink:href="#XMLID_4_"  style="overflow:visible;"/>
				</clipPath>
				<path style="opacity:0.2;clip-path:url(#XMLID_00000096782252262452716620000004237190466544732054_);" d="M216.702,194.713
					c-2.819,0.846-49.898,18.324-49.898,18.324l-5.084-0.279l-3.795,9.901c0,0,2.894,3.473,5.499,5.499
					c2.605,2.026,3.184,0.868,6.367-0.579c3.184-1.447,47.583-29.231,47.583-29.231s2.894-0.579,4.92-1.447s5.788-2.315,6.946-4.052
					c1.158-1.737,1.158-8.683,1.158-8.683s-0.728,2.935-2.701,4.908C225.723,191.048,219.521,193.867,216.702,194.713z"/>
				
					<use xlink:href="#XMLID_4_"  style="overflow:visible;fill:none;stroke:#263238;stroke-linecap:round;stroke-linejoin:round;stroke-miterlimit:10;"/>
			</g>
			<g>
				<defs>
					<path id="XMLID_2_" d="M171.816,205.583c0,0-32.754-30.51-37.385-31.667s-9.84,3.473-10.13,9.84
						c-0.289,6.367,32.754,49.322,32.754,49.322L171.816,205.583z"/>
				</defs>
				<use xlink:href="#XMLID_2_"  style="overflow:visible;fill:#C6FF00;"/>
				<clipPath id="XMLID_00000132056942805239297990000008430155295269033895_">
					<use xlink:href="#XMLID_2_"  style="overflow:visible;"/>
				</clipPath>
				<path style="opacity:0.2;clip-path:url(#XMLID_00000132056942805239297990000008430155295269033895_);" d="M161.844,224.158
					l-3.217-3.509l8.739-19.17l-10.713,17.197l-29.883-40.595l-0.911,0.316c-0.892,1.532-1.469,3.36-1.56,5.36
					c-0.289,6.367,32.754,49.322,32.754,49.322L161.844,224.158z"/>
				
					<use xlink:href="#XMLID_2_"  style="overflow:visible;fill:none;stroke:#263238;stroke-linecap:round;stroke-linejoin:round;stroke-miterlimit:10;"/>
			</g>
		</g>
	</g>
</g>
</svg>
